<svg width="21" height="20" viewBox="0 0 21 20" fill="none" xmlns="http://www.w3.org/2000/svg">
<path d="M10.5 10C13.2625 10 15.5 7.7625 15.5 5C15.5 2.2375 13.2625 0 10.5 0C7.7375 0 5.5 2.2375 5.5 5C5.5 7.7625 7.7375 10 10.5 10ZM10.5 2.5C11.875 2.5 13 3.625 13 5C13 6.375 11.875 7.5 10.5 7.5C9.125 7.5 8 6.375 8 5C8 3.625 9.125 2.5 10.5 2.5ZM10.5 11.25C7.1625 11.25 0.5 12.925 0.5 16.25V20H20.5V16.25C20.5 12.925 13.8375 11.25 10.5 11.25ZM18 17.5H3V16.2625C3.25 15.3625 7.125 13.75 10.5 13.75C13.875 13.75 17.75 15.3625 18 16.25V17.5Z" fill="#F0C603"/>
</svg>
