<svg width="677" height="197" viewBox="0 0 677 197" fill="none" xmlns="http://www.w3.org/2000/svg">
<g clip-path="url(#clip0)">
<path d="M205.934 119C213.911 119 218.411 114.04 218.411 105.858C218.411 97.7273 213.911 92.8182 206.292 92.8182H197.854V119H205.934ZM201.025 116.188V95.6307H206.087C212.223 95.6307 215.343 99.517 215.343 105.858C215.343 112.25 212.223 116.188 205.729 116.188H201.025ZM229.098 119.46C232.525 119.46 234.314 117.619 234.928 116.341H235.081V119H238.098V106.062C238.098 99.8239 233.343 99.108 230.837 99.108C227.871 99.108 224.496 100.131 222.962 103.71L225.826 104.733C226.49 103.301 228.063 101.767 230.939 101.767C233.713 101.767 235.081 103.237 235.081 105.756V105.858C235.081 107.315 233.598 107.188 230.019 107.648C226.375 108.121 222.4 108.926 222.4 113.426C222.4 117.261 225.365 119.46 229.098 119.46ZM229.559 116.75C227.155 116.75 225.417 115.676 225.417 113.58C225.417 111.278 227.513 110.562 229.865 110.256C231.144 110.102 234.57 109.744 235.081 109.131V111.892C235.081 114.347 233.138 116.75 229.559 116.75ZM244.845 126.364C247.568 126.364 249.486 124.919 250.624 121.864L258.984 99.4148L255.686 99.3636L250.266 115.011H250.061L244.641 99.3636H241.368L248.629 119.102L248.067 120.636C246.967 123.628 245.612 123.909 243.413 123.347L242.646 126.006C242.953 126.159 243.822 126.364 244.845 126.364ZM276.885 103.761C275.939 100.974 273.817 99.108 269.931 99.108C265.789 99.108 262.721 101.46 262.721 104.784C262.721 107.494 264.331 109.31 267.936 110.153L271.209 110.92C273.191 111.381 274.124 112.327 274.124 113.682C274.124 115.369 272.334 116.75 269.522 116.75C267.054 116.75 265.507 115.689 264.971 113.58L262.107 114.295C262.81 117.632 265.559 119.409 269.573 119.409C274.137 119.409 277.243 116.916 277.243 113.528C277.243 110.793 275.53 109.067 272.027 108.21L269.113 107.494C266.786 106.919 265.738 106.139 265.738 104.631C265.738 102.943 267.527 101.716 269.931 101.716C272.564 101.716 273.651 103.173 274.175 104.528L276.885 103.761ZM281.785 126.364H284.802V115.983H285.058C285.722 117.057 287.001 119.409 290.785 119.409C295.694 119.409 299.12 115.472 299.12 109.233C299.12 103.045 295.694 99.108 290.734 99.108C286.898 99.108 285.722 101.46 285.058 102.483H284.7V99.3636H281.785V126.364ZM284.751 109.182C284.751 104.784 286.694 101.818 290.376 101.818C294.211 101.818 296.103 105.04 296.103 109.182C296.103 113.375 294.16 116.699 290.376 116.699C286.745 116.699 284.751 113.631 284.751 109.182ZM303.722 119H306.739V106.574C306.739 103.915 308.836 101.972 311.7 101.972C312.505 101.972 313.336 102.125 313.54 102.176V99.108C313.195 99.0824 312.403 99.0568 311.955 99.0568C309.603 99.0568 307.558 100.386 306.842 102.33H306.637V99.3636H303.722V119ZM317.117 119H320.134V99.3636H317.117V119ZM318.651 96.0909C319.827 96.0909 320.799 95.1705 320.799 94.0455C320.799 92.9205 319.827 92 318.651 92C317.475 92 316.503 92.9205 316.503 94.0455C316.503 95.1705 317.475 96.0909 318.651 96.0909ZM328.677 107.188C328.677 103.761 330.799 101.818 333.688 101.818C336.488 101.818 338.188 103.646 338.188 106.727V119H341.205V106.523C341.205 101.511 338.533 99.108 334.558 99.108C331.592 99.108 329.751 100.438 328.83 102.432H328.575V99.3636H325.66V119H328.677V107.188ZM354.645 126.773C359.349 126.773 363.133 124.625 363.133 119.562V99.3636H360.218V102.483H359.912C359.247 101.46 358.02 99.108 354.184 99.108C349.224 99.108 345.798 103.045 345.798 109.08C345.798 115.216 349.377 118.693 354.133 118.693C357.968 118.693 359.196 116.443 359.86 115.369H360.116V119.358C360.116 122.631 357.815 124.114 354.645 124.114C351.078 124.114 349.825 122.234 349.02 121.148L346.616 122.835C347.843 124.893 350.26 126.773 354.645 126.773ZM354.542 115.983C350.758 115.983 348.815 113.119 348.815 109.028C348.815 105.04 350.707 101.818 354.542 101.818C358.224 101.818 360.167 104.784 360.167 109.028C360.167 113.375 358.173 115.983 354.542 115.983Z" fill="black"/>
<path d="M399.603 101.984C398.874 95.9375 394.298 92.4602 388.238 92.4602C381.322 92.4602 376.042 97.3438 376.042 105.909C376.042 114.449 381.232 119.358 388.238 119.358C394.95 119.358 399.002 114.896 399.603 110.077L394.004 110.051C393.479 112.851 391.281 114.462 388.327 114.462C384.352 114.462 381.654 111.509 381.654 105.909C381.654 100.463 384.313 97.3565 388.366 97.3565C391.396 97.3565 393.582 99.108 394.004 101.984H399.603ZM403.47 119H408.916V107.891C408.916 105.474 410.68 103.812 413.084 103.812C413.838 103.812 414.874 103.94 415.385 104.107V99.2741C414.899 99.1591 414.222 99.0824 413.672 99.0824C411.473 99.0824 409.67 100.361 408.955 102.79H408.75V99.3636H403.47V119ZM426.235 119.384C431.093 119.384 434.366 117.018 435.133 113.375L430.096 113.043C429.547 114.538 428.14 115.318 426.325 115.318C423.602 115.318 421.876 113.516 421.876 110.588V110.575H435.248V109.08C435.248 102.406 431.208 99.108 426.018 99.108C420.24 99.108 416.494 103.212 416.494 109.271C416.494 115.497 420.189 119.384 426.235 119.384ZM421.876 107.2C421.991 104.963 423.691 103.173 426.108 103.173C428.473 103.173 430.109 104.861 430.122 107.2H421.876ZM446.038 119.32C449.208 119.32 450.858 117.491 451.612 115.855H451.842V119H457.211V92.8182H451.778V102.662H451.612C450.883 101.064 449.311 99.108 446.025 99.108C441.717 99.108 438.074 102.457 438.074 109.207C438.074 115.778 441.564 119.32 446.038 119.32ZM447.764 114.986C445.092 114.986 443.635 112.608 443.635 109.182C443.635 105.781 445.066 103.442 447.764 103.442C450.41 103.442 451.893 105.679 451.893 109.182C451.893 112.685 450.385 114.986 447.764 114.986ZM461.689 119H467.135V99.3636H461.689V119ZM464.425 96.8324C466.048 96.8324 467.378 95.5923 467.378 94.071C467.378 92.5625 466.048 91.3224 464.425 91.3224C462.814 91.3224 461.484 92.5625 461.484 94.071C461.484 95.5923 462.814 96.8324 464.425 96.8324ZM481.942 99.3636H478.248V94.6591H472.801V99.3636H470.117V103.455H472.801V113.682C472.776 117.53 475.397 119.435 479.347 119.268C480.753 119.217 481.75 118.936 482.3 118.757L481.444 114.705C481.175 114.756 480.6 114.884 480.088 114.884C479.002 114.884 478.248 114.474 478.248 112.966V103.455H481.942V99.3636Z" fill="#1DA737"/>
<g opacity="0.5" filter="url(#filter0_f)">
<path d="M139.5 -57C139.5 -68.0457 130.546 -77 119.5 -77H-192.5C-203.546 -77 -212.5 -68.0457 -212.5 -57V255C-212.5 266.046 -203.546 275 -192.5 275H-103.716C-87.9209 275 -77.9409 257.177 -83.2858 242.313C-89.5294 224.951 -92.9317 206.233 -92.9317 186.721C-92.9317 95.999 -19.3867 22.454 71.3349 22.454C84.7007 22.454 97.6935 24.0502 110.133 27.0625C124.286 30.4895 139.5 20.6608 139.5 6.09942V-57Z" fill="#F0C603"/>
</g>
<g opacity="0.5" filter="url(#filter1_f)">
<path d="M537.5 255C537.5 266.046 546.454 275 557.5 275H869.5C880.546 275 889.5 266.046 889.5 255V-57C889.5 -68.0457 880.546 -77 869.5 -77H780.716C764.921 -77 754.941 -59.1767 760.286 -44.3133C766.529 -26.951 769.932 -8.23328 769.932 11.2794C769.932 102.001 696.387 175.546 605.665 175.546C592.299 175.546 579.306 173.95 566.867 170.937C552.714 167.51 537.5 177.339 537.5 191.901V255Z" fill="#F0C603"/>
</g>
</g>
<defs>
<filter id="filter0_f" x="-462.5" y="-327" width="852" height="852" filterUnits="userSpaceOnUse" color-interpolation-filters="sRGB">
<feFlood flood-opacity="0" result="BackgroundImageFix"/>
<feBlend mode="normal" in="SourceGraphic" in2="BackgroundImageFix" result="shape"/>
<feGaussianBlur stdDeviation="125" result="effect1_foregroundBlur"/>
</filter>
<filter id="filter1_f" x="287.5" y="-327" width="852" height="852" filterUnits="userSpaceOnUse" color-interpolation-filters="sRGB">
<feFlood flood-opacity="0" result="BackgroundImageFix"/>
<feBlend mode="normal" in="SourceGraphic" in2="BackgroundImageFix" result="shape"/>
<feGaussianBlur stdDeviation="125" result="effect1_foregroundBlur"/>
</filter>
<clipPath id="clip0">
<rect x="0.5" width="676" height="197" rx="20" fill="white"/>
</clipPath>
</defs>
</svg>
