<svg width="21" height="20" viewBox="0 0 21 20" fill="none" xmlns="http://www.w3.org/2000/svg">
<path fill-rule="evenodd" clip-rule="evenodd" d="M10.482 0.472168C7.87478 0.472168 7.54757 0.483568 6.52356 0.530169C5.50155 0.576969 4.80394 0.738771 4.19354 0.976173C3.56213 1.22138 3.02653 1.54938 2.49292 2.08318C1.95891 2.61679 1.63091 3.1524 1.38491 3.7836C1.14691 4.39421 0.984905 5.09202 0.938904 6.11363C0.893104 7.13764 0.881104 7.46504 0.881104 10.0723C0.881104 12.6795 0.892704 13.0057 0.939104 14.0297C0.986105 15.0517 1.14791 15.7493 1.38511 16.3597C1.63051 16.9911 1.95851 17.5267 2.49232 18.0603C3.02573 18.5944 3.56133 18.9232 4.19234 19.1684C4.80314 19.4058 5.50095 19.5676 6.52276 19.6144C7.54677 19.661 7.87378 19.6724 10.4808 19.6724C13.0882 19.6724 13.4144 19.661 14.4384 19.6144C15.4605 19.5676 16.1589 19.4058 16.7697 19.1684C17.4009 18.9232 17.9357 18.5944 18.4691 18.0603C19.0031 17.5267 19.3311 16.9911 19.5771 16.3599C19.8131 15.7493 19.9751 15.0515 20.0231 14.0299C20.0691 13.0059 20.0811 12.6795 20.0811 10.0723C20.0811 7.46504 20.0691 7.13784 20.0231 6.11383C19.9751 5.09181 19.8131 4.39421 19.5771 3.7838C19.3311 3.1524 19.0031 2.61679 18.4691 2.08318C17.9351 1.54918 17.4011 1.22118 16.7691 0.976173C16.1571 0.738771 15.4591 0.576969 14.437 0.530169C13.413 0.483568 13.087 0.472168 10.479 0.472168L10.482 0.472168ZM9.62079 2.20219C9.78802 2.20192 9.96791 2.20201 10.162 2.20209L10.482 2.20219C13.0452 2.20219 13.349 2.21139 14.3612 2.25739C15.2973 2.30019 15.8053 2.45659 16.1437 2.58799C16.5917 2.76199 16.9111 2.96999 17.2469 3.306C17.5829 3.642 17.7909 3.962 17.9653 4.41001C18.0967 4.74801 18.2533 5.25602 18.2959 6.19203C18.3419 7.20404 18.3519 7.50804 18.3519 10.0701C18.3519 12.6321 18.3419 12.9361 18.2959 13.9481C18.2531 14.8841 18.0967 15.3921 17.9653 15.7301C17.7913 16.1781 17.5829 16.4971 17.2469 16.8329C16.9109 17.1689 16.5919 17.3769 16.1437 17.5509C15.8057 17.6829 15.2973 17.8389 14.3612 17.8818C13.3492 17.9277 13.0452 17.9377 10.482 17.9377C7.91858 17.9377 7.61477 17.9277 6.60276 17.8818C5.66675 17.8385 5.15875 17.6821 4.82014 17.5507C4.37214 17.3767 4.05214 17.1687 3.71613 16.8327C3.38013 16.4967 3.17213 16.1775 2.99773 15.7293C2.86632 15.3913 2.70972 14.8833 2.66712 13.9473C2.62112 12.9353 2.61192 12.6313 2.61192 10.0677C2.61192 7.50404 2.62112 7.20164 2.66712 6.18963C2.70992 5.25362 2.86632 4.74561 2.99773 4.40721C3.17173 3.9592 3.38013 3.6392 3.71613 3.3032C4.05214 2.96719 4.37214 2.75919 4.82014 2.58479C5.15855 2.45279 5.66675 2.29679 6.60276 2.25379C7.48837 2.21379 7.83158 2.20179 9.62079 2.19979L9.62079 2.20219ZM14.4544 4.94781C14.4544 4.31161 14.9705 3.7962 15.6065 3.7962L15.6065 3.7958C16.2425 3.7958 16.7585 4.31181 16.7585 4.94781C16.7585 5.58382 16.2425 6.09983 15.6065 6.09983C14.9705 6.09983 14.4544 5.58382 14.4544 4.94781ZM10.4818 5.14222C7.75926 5.14232 5.55195 7.34971 5.55195 10.0723C5.55195 12.7949 7.75938 15.0013 10.482 15.0013C13.2046 15.0013 15.4113 12.7949 15.4113 10.0723C15.4113 7.34964 13.2044 5.14222 10.4818 5.14222ZM13.682 10.0723C13.682 8.30485 12.2492 6.87224 10.482 6.87224C8.71459 6.87224 7.28197 8.30485 7.28197 10.0723C7.28197 11.8395 8.71459 13.2723 10.482 13.2723C12.2492 13.2723 13.682 11.8395 13.682 10.0723Z" fill="#1DA737"/>
</svg>
