<svg width="69" height="100" viewBox="0 0 69 100" fill="none" xmlns="http://www.w3.org/2000/svg">
<path d="M53.7016 86.5806C53.7016 85.4874 53.712 84.3977 53.6947 83.3046C53.6912 82.9863 53.7812 82.8445 54.1133 82.8756C54.3727 82.8998 54.6391 82.8894 54.902 82.8791C55.2756 82.8618 55.5558 82.9759 55.6527 83.3703C55.7253 83.6678 55.8568 83.5882 56.0263 83.4429C56.6351 82.9137 57.3512 82.7165 58.14 82.7753C59.4027 82.8721 60.3125 83.7647 60.3713 85.1277C60.4439 86.757 60.399 88.3899 60.4093 90.0192C60.4093 90.2164 60.3228 90.2891 60.136 90.2856C59.5825 90.2821 59.029 90.2752 58.479 90.2856C58.1711 90.2925 58.2057 90.0884 58.2057 89.8947C58.2057 88.6078 58.2057 87.3244 58.2057 86.0375C58.2057 85.9545 58.2057 85.8714 58.2057 85.7884C58.1988 85.311 58.2057 84.8129 57.711 84.5534C57.1852 84.2766 56.6974 84.4808 56.2269 84.761C55.9848 84.9063 55.9052 85.1 55.9087 85.3767C55.9225 86.8262 55.9156 88.2792 55.9156 89.7321C55.9156 90.2856 55.9156 90.2856 55.3448 90.2856C54.9297 90.2856 54.5145 90.2718 54.1029 90.2925C53.7985 90.3098 53.6912 90.2095 53.6981 89.8947C53.712 88.7946 53.7016 87.6876 53.7016 86.5806Z" fill="#1E1A18"/>
<path d="M23.0407 88.8067C22.2312 86.9594 21.4217 85.1086 20.6019 83.2647C20.4739 82.9811 20.5015 82.8669 20.844 82.8808C21.3007 82.9015 21.7573 82.9015 22.2105 82.8808C22.6602 82.8635 22.9266 83.0468 23.0788 83.4792C23.4939 84.6381 23.9367 85.7832 24.3691 86.9351C24.3968 87.0112 24.4037 87.0977 24.5421 87.1427C24.6424 86.8763 24.7496 86.6134 24.8431 86.3436C25.1751 85.3923 25.5142 84.4409 25.829 83.4827C25.9639 83.0676 26.213 82.8704 26.6523 82.8808C27.0536 82.8911 27.4549 82.8911 27.8562 82.8808C28.1467 82.8738 28.2678 82.9257 28.126 83.2544C27.4998 84.6865 26.8945 86.1256 26.2821 87.5613C26.0469 88.0802 25.8324 88.6095 25.6145 89.1353C25.4554 89.4985 25.2755 89.8548 25.1579 90.2354C25.1267 90.5052 24.9399 90.7093 24.8638 90.9618C24.7912 91.0933 24.7773 91.249 24.6908 91.3735C24.6701 91.4116 24.6528 91.4462 24.632 91.4842C24.4279 91.8474 24.4279 92.3871 23.9886 92.5497C23.4143 92.7642 22.7882 92.6396 22.1863 92.6223C21.9164 92.6154 22.0859 92.3975 22.1344 92.2868C22.5391 91.4254 22.9508 90.5709 23.3624 89.713C23.3832 89.3671 23.1445 89.1111 23.0407 88.8067Z" fill="#1E1A18"/>
<path d="M30.9745 90.3967C30.3622 90.3898 29.5735 90.1787 28.8435 89.7429C28.5806 89.5872 28.4665 89.4281 28.7052 89.1651C28.7432 89.1236 28.764 89.0717 28.7951 89.0233C29.2725 88.2622 29.4282 88.2173 30.2273 88.622C30.6182 88.8192 31.0195 88.9437 31.4623 88.8919C31.7944 88.8503 32.1023 88.75 32.1749 88.3695C32.251 87.9751 31.9708 87.7952 31.6664 87.6638C31.1094 87.4216 30.5006 87.3109 29.954 87.0342C28.8885 86.4945 28.4699 85.4256 28.892 84.3047C29.0753 83.8204 29.4005 83.4572 29.8468 83.1977C31.0091 82.5231 32.8702 82.6546 33.9392 83.4745C34.1571 83.6405 34.2263 83.7893 34.0395 84.0141C33.9772 84.0868 33.9323 84.1767 33.8804 84.2563C33.5241 84.8063 33.3995 84.8444 32.7941 84.5953C32.3825 84.4258 31.9674 84.2667 31.5107 84.3324C31.2097 84.3739 30.9261 84.4708 30.8638 84.8167C30.7981 85.1696 31.0368 85.3564 31.3204 85.4705C31.784 85.6539 32.2579 85.8026 32.7215 85.9825C33.8077 86.3976 34.254 86.9615 34.2609 87.9025C34.2678 88.9368 33.7143 89.729 32.7111 90.1338C32.2303 90.3275 31.7252 90.3932 30.9745 90.3967Z" fill="#1E1A18"/>
<path d="M45.846 83.9967C46.1262 83.6957 46.3407 83.4086 46.6243 83.1872C47.0983 82.817 47.6206 82.6648 48.2156 82.7824C48.5201 82.8412 48.6757 82.99 48.5927 83.3325C48.5097 83.6819 48.4543 84.0382 48.4059 84.3945C48.3575 84.7716 48.1776 84.9238 47.7901 84.858C47.1674 84.7473 46.607 84.8546 46.1885 85.3873C46.0259 85.5914 45.9463 85.8024 45.9463 86.0688C45.9567 87.328 45.9428 88.5838 45.9567 89.843C45.9601 90.1716 45.8875 90.3204 45.5243 90.2962C45.0572 90.265 44.5833 90.2754 44.1163 90.2927C43.8326 90.3031 43.7254 90.2166 43.7288 89.9191C43.7392 87.7051 43.7392 85.4946 43.7288 83.2806C43.7288 82.9796 43.8119 82.8343 44.1267 82.8758C44.1959 82.8862 44.265 82.8793 44.3342 82.8793C45.4862 82.8897 45.4862 82.8897 45.846 83.9967Z" fill="#1E1A18"/>
<path d="M51.9196 86.601C51.9196 87.708 51.9127 88.8115 51.9265 89.9185C51.93 90.2091 51.8401 90.3095 51.5495 90.2991C51.0513 90.2783 50.5532 90.2852 50.0585 90.2956C49.8232 90.2991 49.7021 90.2437 49.7021 89.9774C49.7091 87.7253 49.7091 85.4732 49.7056 83.2212C49.7056 82.9756 49.7886 82.8752 50.0446 82.8856C50.5566 82.8995 51.0686 82.8995 51.5771 82.8856C51.8504 82.8787 51.9335 82.9825 51.93 83.2488C51.9127 84.3593 51.9196 85.4802 51.9196 86.601Z" fill="#1F1A18"/>
<path d="M1.80398 72.8564C1.19167 72.3652 0.901082 71.7252 0.91146 70.9434C0.914919 70.639 0.904541 70.3346 0.904541 70.0301C0.904541 50.8272 0.904541 31.6242 0.904541 12.4212C0.904541 11.9507 0.928757 11.4803 0.949513 11.0098C0.956432 10.8299 0.96681 10.65 1.1121 10.5116C1.17091 10.484 1.21588 10.4978 1.25048 10.5532C1.3335 10.7573 1.29545 10.9683 1.26778 11.1689C1.16399 11.9265 1.19513 12.6876 1.19513 13.4486C1.19513 32.3403 1.19513 51.2319 1.19513 70.1235C1.19513 70.511 1.20551 70.895 1.2574 71.2824C1.33004 71.784 1.54799 72.1992 1.91122 72.5416C2.00808 72.635 2.13954 72.7077 2.16375 72.8599C2.04614 73.1436 1.92506 72.898 1.80398 72.8564Z" fill="#35AD45"/>
<path d="M1.21926 10.5195C1.18467 10.5161 1.15007 10.5126 1.11548 10.5091C1.31958 9.81034 1.82811 9.42289 2.47501 9.18765C2.78981 9.07349 3.12191 9.05273 3.45401 9.05273C23.1517 9.05273 42.8494 9.05273 62.5505 9.05619C62.8376 9.05619 63.1317 9.03198 63.3946 9.18073C63.3427 9.25338 63.2666 9.28451 63.1835 9.30527C62.9241 9.35024 62.6612 9.33294 62.3983 9.33294C42.8805 9.33294 23.3592 9.33986 3.84146 9.31911C2.84862 9.31911 2.05989 9.5924 1.4545 10.3742C1.39569 10.4572 1.33342 10.5333 1.21926 10.5195Z" fill="#38A74C"/>
<path d="M0.558812 82.4712C0.591293 82.4712 0.617624 64.0094 0.617624 41.2355C0.617624 18.4616 0.591293 -0.000244141 0.558812 -0.000244141C0.526331 -0.000244141 0.5 18.4616 0.5 41.2355C0.5 64.0094 0.526331 82.4712 0.558812 82.4712Z" fill="#F1F5FD"/>
<path d="M55.4828 97.7482C55.4828 97.4161 55.4794 97.084 55.4828 96.7519C55.4863 96.3783 55.7284 96.1949 56.0294 96.4094C56.2577 96.572 56.3788 96.489 56.5691 96.406C56.8527 96.278 57.1433 96.2883 57.3716 96.5305C57.4892 96.655 57.5688 96.7277 57.7383 96.5789C58.0704 96.2849 58.4682 96.2537 58.8626 96.4267C59.2604 96.5997 59.3469 96.9698 59.3573 97.3573C59.3711 97.8416 59.3504 98.3259 59.3677 98.8102C59.378 99.1388 59.167 99.1077 58.956 99.1146C58.7277 99.1215 58.5443 99.1146 58.5582 98.7998C58.5755 98.357 58.5651 97.9142 58.5582 97.4714C58.5547 97.2258 58.5305 96.9595 58.2122 96.9595C57.8801 96.956 57.8283 97.2224 57.8283 97.4887C57.8248 97.89 57.8075 98.2913 57.8352 98.6926C57.8559 99.0143 57.7591 99.1215 57.4201 99.125C57.0568 99.1285 57.0084 98.9693 57.0222 98.6718C57.0395 98.2844 57.0291 97.8969 57.0222 97.5095C57.0188 97.257 57.0291 96.9664 56.6763 96.956C56.3165 96.9456 56.2715 97.2051 56.2785 97.4991C56.2888 97.9281 56.2681 98.357 56.2888 98.786C56.3061 99.1319 56.0951 99.1112 55.8599 99.1181C55.6177 99.125 55.4586 99.0939 55.4759 98.7894C55.4966 98.44 55.4828 98.0941 55.4828 97.7482Z" fill="#211C1A"/>
<path d="M35.7367 97.7344C35.7367 97.4161 35.7367 97.0978 35.7367 96.7796C35.7367 96.3679 35.9892 96.1984 36.3317 96.4302C36.5116 96.5512 36.6015 96.5201 36.7607 96.4371C37.0824 96.271 37.4076 96.2641 37.6636 96.5651C37.7916 96.7173 37.8781 96.6689 38.0026 96.5651C38.3451 96.2849 38.736 96.2503 39.1303 96.4302C39.5247 96.6101 39.6077 96.9837 39.6181 97.3677C39.632 97.8381 39.6043 98.3086 39.6285 98.7791C39.6458 99.1216 39.4417 99.1112 39.203 99.1146C38.9712 99.1181 38.7982 99.1008 38.8121 98.7895C38.8294 98.3328 38.819 97.8762 38.8121 97.4196C38.8086 97.1843 38.7602 96.956 38.4627 96.956C38.179 96.956 38.0925 97.1705 38.0856 97.4092C38.0752 97.8658 38.0649 98.3224 38.0856 98.7791C38.0995 99.08 37.9507 99.1181 37.7051 99.1146C37.4664 99.1077 37.2657 99.1216 37.2796 98.7791C37.3003 98.3224 37.2865 97.8658 37.283 97.4092C37.2796 97.1705 37.2208 96.9491 36.9233 96.9525C36.6223 96.956 36.5324 97.1463 36.5427 97.4265C36.5566 97.8693 36.5289 98.3121 36.5497 98.7549C36.567 99.0731 36.4147 99.1216 36.1484 99.1146C35.9028 99.1112 35.709 99.1077 35.7332 98.7722C35.7575 98.4262 35.7402 98.0803 35.7367 97.7344C35.7402 97.7344 35.7402 97.7344 35.7367 97.7344Z" fill="#211B19"/>
<path d="M3.78577 95.5197C4.47418 95.1219 5.17297 95.0942 5.87523 95.4886C6.0309 95.5751 6.21079 95.6788 6.04128 95.9072C5.90982 96.0836 5.79912 96.305 5.51545 96.1389C5.08303 95.8864 4.64023 95.8518 4.23894 96.1805C3.80306 96.5368 3.75117 97.0315 3.85841 97.5434C4.021 98.3253 4.70596 98.6366 5.40821 98.2457C5.58464 98.1488 5.70918 98.0969 5.88214 98.263C6.107 98.4775 6.107 98.6228 5.85793 98.82C5.28021 99.2766 3.90684 99.3423 3.298 98.4291C2.87941 97.7372 2.80331 97.0176 3.12849 96.2704C3.28762 95.9729 3.51594 95.7273 3.78577 95.5197Z" fill="#201B19"/>
<path d="M49.6957 80.1742C50.1627 79.6069 50.7024 79.427 51.2939 79.638C51.9962 79.8905 52.3525 80.6481 52.0792 81.3089C51.7921 82.0042 50.9203 82.3294 50.2458 81.9869C50.1108 81.9177 49.9932 81.8209 49.8687 81.7378C49.4328 81.302 49.3532 80.6758 49.6957 80.1742Z" fill="#1F1A19"/>
<path d="M42.9923 97.7441C42.9923 97.412 42.9888 97.0799 42.9923 96.7478C42.9957 96.3742 43.2725 96.1978 43.5804 96.4192C43.7602 96.5507 43.8536 96.5438 44.037 96.4503C44.6908 96.1148 45.3308 96.4469 45.3965 97.1768C45.4484 97.7407 45.4242 98.308 45.4242 98.8754C45.4242 99.1936 45.1682 99.0933 44.9952 99.1037C44.8154 99.1175 44.6182 99.1417 44.6216 98.8581C44.6251 98.3876 44.6251 97.9171 44.6216 97.4466C44.6182 97.1941 44.5697 96.9485 44.2549 96.9519C43.947 96.9554 43.7845 97.1249 43.7948 97.457C43.8121 97.8998 43.7845 98.3426 43.8052 98.782C43.819 99.0864 43.6565 99.1106 43.4178 99.1071C43.1791 99.1037 42.9715 99.1175 42.9923 98.775C43.0096 98.436 42.9957 98.0901 42.9923 97.7441C42.9957 97.7441 42.9957 97.7441 42.9923 97.7441Z" fill="#231D1B"/>
<path d="M22.7382 97.7309C22.7382 97.4126 22.7382 97.0943 22.7382 96.7761C22.7416 96.3679 23.008 96.1949 23.3366 96.4301C23.5061 96.5512 23.5857 96.5443 23.7552 96.4578C24.4298 96.1084 25.0767 96.4371 25.1459 97.1912C25.1978 97.7412 25.1701 98.2947 25.1736 98.8483C25.177 99.1907 24.9176 99.0939 24.7273 99.1077C24.5336 99.1215 24.3641 99.1181 24.371 98.8448C24.3814 98.402 24.3779 97.9592 24.3744 97.5198C24.371 97.25 24.3675 96.9525 23.9905 96.956C23.6445 96.9594 23.5304 97.1808 23.5442 97.5164C23.5649 97.9453 23.5338 98.3743 23.5511 98.7998C23.565 99.1215 23.3747 99.1146 23.1533 99.1112C22.9388 99.1077 22.7278 99.1354 22.7382 98.8102C22.7485 98.4504 22.7382 98.0906 22.7382 97.7309Z" fill="#221D1B"/>
<path d="M8.74704 98.0941C8.74704 98.3017 8.75049 98.5092 8.74358 98.7168C8.74012 98.8482 8.79893 99.0177 8.63287 99.0835C8.4772 99.1423 8.28348 99.1561 8.16932 99.0143C8.0344 98.8448 7.92716 98.8932 7.78879 98.9901C7.63657 99.0939 7.4636 99.1388 7.28026 99.1527C6.84783 99.1838 6.53995 98.997 6.43617 98.6441C6.32547 98.2671 6.49152 97.928 6.88935 97.7309C7.12804 97.6132 7.3875 97.5648 7.64695 97.5371C7.77841 97.5233 7.95138 97.5648 7.94446 97.3469C7.93754 97.1497 7.86143 96.9975 7.64349 96.9629C7.45323 96.9352 7.29063 97.0148 7.12804 97.084C6.89626 97.1843 6.71638 97.1289 6.61605 96.9006C6.50535 96.6481 6.73367 96.5962 6.88243 96.5201C7.92024 95.977 8.74358 96.4751 8.75049 97.6444C8.74703 97.7897 8.74704 97.9419 8.74704 98.0941Z" fill="#211C1A"/>
<path d="M51.3246 97.1805C51.3246 96.6546 51.3419 96.1288 51.3177 95.6065C51.3004 95.2501 51.4976 95.2432 51.757 95.2467C52.0096 95.2501 52.2171 95.2363 52.2102 95.5995C52.1895 96.3883 52.2206 97.177 52.1964 97.9623C52.186 98.3221 52.3209 98.4293 52.6496 98.3982C52.826 98.3809 53.0093 98.412 53.1892 98.3878C53.4833 98.3532 53.6147 98.4293 53.6113 98.7614C53.6078 99.0762 53.4729 99.1281 53.2065 99.1177C52.6945 99.1039 52.1826 99.1004 51.674 99.1177C51.3973 99.1281 51.3142 99.0174 51.3212 98.7545C51.335 98.2287 51.3246 97.7028 51.3246 97.1805Z" fill="#2C2626"/>
<path d="M43.8734 3.95313C43.8837 2.71813 45.1602 1.93978 46.2672 2.50019C46.4091 2.57284 46.6582 2.62473 46.5371 2.87727C46.4333 3.09521 46.2776 3.21974 46.0078 3.07099C45.6688 2.88418 45.3055 2.88764 44.9942 3.13326C44.6586 3.39963 44.5894 3.78016 44.6517 4.18491C44.7555 4.85948 45.3332 5.18121 45.9386 4.87332C46.1911 4.74533 46.3676 4.7557 46.4886 4.9944C46.6236 5.25385 46.3641 5.3265 46.2154 5.40952C45.1222 6.01837 43.863 5.2331 43.8734 3.95313Z" fill="#211C1A"/>
<path d="M64.1976 2.36677C64.3498 2.36677 64.502 2.36331 64.6542 2.36677C64.7995 2.37023 64.9828 2.32872 64.9967 2.55704C65.007 2.76114 64.9136 2.91335 64.7026 2.94103C64.5124 2.96524 64.3186 2.9687 64.1249 2.96178C63.8966 2.95141 63.7928 3.05173 63.7893 3.27313C63.7859 3.53258 63.9796 3.45301 64.1145 3.46339C64.6853 3.50836 65.0278 3.78857 65.1039 4.28326C65.1869 4.80563 64.8894 5.32453 64.3913 5.50788C63.9658 5.66355 63.5506 5.62204 63.1597 5.38334C63.0421 5.31069 62.9072 5.23113 63.0144 5.06162C63.0975 4.93016 63.1978 4.80563 63.3811 4.86789C63.5126 4.91287 63.6337 4.98551 63.7651 5.02011C63.9623 5.072 64.1595 5.05816 64.2944 4.88519C64.4432 4.69839 64.4708 4.48045 64.3774 4.25905C64.2875 4.04802 64.0938 4.01689 63.8931 4.01343C63.0871 4.00997 63.0871 4.00997 63.2116 3.23161C63.2151 3.21778 63.2151 3.20394 63.2185 3.1901C63.4123 2.23186 63.1597 2.38061 64.1976 2.36677Z" fill="#221D1C"/>
<path d="M62.4606 4.05073C62.765 4.47624 62.7477 4.93633 62.4191 5.27535C62.0627 5.64205 61.3328 5.71123 60.8969 5.41719C60.807 5.35838 60.7343 5.27189 60.6513 5.19925C60.5718 5.04357 60.3434 4.89482 60.5545 4.70456C60.7793 4.50045 61.0042 4.55926 61.191 4.7945C61.3536 4.9986 61.5611 5.06087 61.8067 4.95363C62.1319 4.55926 62.0697 4.30327 61.6061 4.18911C61.4573 4.15106 61.3466 4.113 61.3466 3.93312C61.3466 3.76361 61.4262 3.68058 61.5888 3.65982C61.8067 3.63561 61.952 3.53183 61.9624 3.29659C61.9693 3.134 61.9209 2.98525 61.7583 2.92298C61.53 2.83649 61.357 2.92644 61.229 3.12362C61.1598 3.23086 61.0872 3.33464 60.9419 3.33118C60.8174 3.33118 60.6825 3.3381 60.5925 3.23778C60.4853 3.12016 60.5787 3.00254 60.6306 2.8953C60.8727 2.40061 61.5369 2.18267 62.1008 2.41099C62.5609 2.59434 62.7096 2.97487 62.547 3.53529C62.4986 3.70826 62.1458 3.82587 62.4606 4.05073Z" fill="#211D1C"/>
<path d="M32.2952 96.3297C32.5339 96.3332 32.7657 96.3747 32.9732 96.4958C33.0943 96.5649 33.2258 96.6445 33.1289 96.8209C33.0528 96.9628 32.9525 97.0735 32.7657 97.025C32.6342 96.9905 32.5028 96.942 32.3644 96.9247C32.2225 96.904 32.0703 96.9247 32.0288 97.0908C31.9908 97.2499 32.1291 97.3053 32.2398 97.3537C32.4024 97.4263 32.5754 97.4817 32.7414 97.5509C33.032 97.672 33.2258 97.8761 33.2292 98.2082C33.2327 98.5714 33.077 98.8551 32.7484 99.0142C32.309 99.2252 31.8628 99.1872 31.4269 98.9865C31.3024 98.9312 31.1501 98.8654 31.2332 98.6821C31.3127 98.5126 31.4234 98.3673 31.6517 98.4399C31.8074 98.4884 31.9631 98.5576 32.1222 98.5852C32.2641 98.6094 32.4128 98.561 32.4509 98.4019C32.4889 98.2531 32.3609 98.1839 32.2468 98.1286C32.1603 98.0871 32.0669 98.0594 31.9769 98.0283C31.3854 97.8138 31.1709 97.5163 31.2574 97.032C31.3369 96.5961 31.7382 96.3228 32.2952 96.3297Z" fill="#211D1B"/>
<path d="M13.919 97.7746C13.919 97.6224 13.919 97.4702 13.919 97.318C13.919 97.1416 13.9432 96.9859 13.6976 96.8994C13.4658 96.8198 13.4693 96.4947 13.6942 96.4358C13.9744 96.3632 14.0263 96.1764 14.0609 95.955C14.0989 95.7024 14.2027 95.5433 14.4864 95.5641C14.7942 95.5848 14.732 95.8235 14.7181 95.9965C14.6939 96.2905 14.8115 96.4012 15.0987 96.3666C15.3201 96.3424 15.3789 96.467 15.3789 96.6676C15.3789 96.8683 15.2855 96.9513 15.1021 96.9271C14.7666 96.8821 14.7008 97.0585 14.7251 97.3422C14.7424 97.5463 14.732 97.7573 14.7285 97.9614C14.7251 98.2382 14.6766 98.5288 15.1229 98.5045C15.282 98.4976 15.3547 98.6983 15.3823 98.8436C15.4135 99.0027 15.2509 99.0338 15.1402 99.0754C14.4587 99.3314 13.9432 98.9923 13.9225 98.2693C13.9156 98.1033 13.919 97.9372 13.919 97.7746Z" fill="#211B1A"/>
<path d="M33.8317 97.8036C33.8317 97.6514 33.8317 97.4992 33.8317 97.347C33.8317 97.1567 33.8594 96.9872 33.593 96.8938C33.3716 96.8177 33.3889 96.496 33.6207 96.4302C33.8767 96.3576 33.9355 96.1881 33.9701 95.9805C34.0116 95.7176 34.1119 95.5308 34.4198 95.5654C34.7277 95.6 34.6308 95.8456 34.6308 96.0186C34.6308 96.2504 34.6758 96.3991 34.9491 96.368C35.1601 96.3438 35.2916 96.406 35.2847 96.662C35.2777 96.8903 35.1636 96.9595 34.9699 96.9353C34.6689 96.8973 34.6205 97.0633 34.6343 97.3089C34.6481 97.558 34.6412 97.8071 34.6378 98.0562C34.6308 98.3122 34.6412 98.5232 35.001 98.5024C35.1843 98.492 35.2708 98.6961 35.2916 98.8553C35.3158 99.0109 35.1497 99.0386 35.0356 99.0801C34.3403 99.3327 33.849 98.9971 33.8317 98.2603C33.8283 98.108 33.8317 97.9558 33.8317 97.8036Z" fill="#211C1A"/>
<path d="M62.3914 99.1509C61.8898 99.1405 61.6027 98.8914 61.5681 98.4417C61.5404 98.0992 61.5612 97.7533 61.5543 97.4074C61.5508 97.1963 61.6096 96.9922 61.3017 96.8815C61.1149 96.8124 61.0942 96.5148 61.3329 96.4387C61.6062 96.3557 61.665 96.1793 61.6996 95.9579C61.7376 95.7088 61.8345 95.5462 62.1251 95.5635C62.4399 95.5843 62.3672 95.8195 62.3568 95.9925C62.3395 96.2796 62.4399 96.4076 62.7339 96.3661C62.9588 96.335 63.0107 96.4664 63.0176 96.6671C63.0245 96.8712 62.9242 96.9507 62.7408 96.93C62.4122 96.8885 62.3326 97.0476 62.3568 97.3416C62.3741 97.5457 62.3568 97.7568 62.3603 97.9609C62.3638 98.2307 62.2946 98.5386 62.7512 98.5074C62.9069 98.4971 62.9899 98.6977 63.0141 98.8395C63.0418 99.0194 62.8619 99.0471 62.7374 99.0852C62.6059 99.1267 62.4675 99.137 62.3914 99.1509Z" fill="#211D1B"/>
<path d="M27.5181 98.3428C27.4628 98.4812 27.4074 98.6195 27.3521 98.7579C27.2829 98.9343 27.2379 99.1246 26.975 99.1108C26.7363 99.0969 26.47 99.1626 26.3696 98.8409C26.0825 98.1456 25.83 97.4364 25.574 96.7307C25.4494 96.3917 25.5013 96.3191 25.8542 96.3121C26.0548 96.3087 26.2382 96.3398 26.3523 96.5266C26.5045 97.0386 26.6533 97.5506 26.8055 98.0591C26.8366 98.0626 26.8712 98.066 26.9024 98.0695C27.0442 97.6232 27.1999 97.1804 27.3244 96.7307C27.404 96.4401 27.57 96.3398 27.8641 96.3502C28.1374 96.3571 28.2654 96.409 28.127 96.703C28.0786 96.7999 28.0543 96.9106 28.0163 97.0144C27.8433 97.4572 27.7015 97.9069 27.5181 98.3428Z" fill="#211C19"/>
<path d="M48.3539 98.439C48.4093 98.4667 48.4646 98.4909 48.52 98.5186C48.7172 98.5359 48.9939 98.695 49.0666 98.4044C49.1288 98.1519 48.8417 98.1208 48.6584 98.0481C48.43 97.9582 48.2121 97.8509 48.0357 97.671C47.8177 97.1487 47.8973 96.7474 48.2744 96.4983C48.648 96.2492 49.4367 96.2838 49.7273 96.5502C49.8276 96.6401 49.8415 96.7301 49.7723 96.8408C49.6962 96.9653 49.6062 97.0622 49.4402 97.0207C49.2949 96.9826 49.1496 96.9376 49.0008 96.9169C48.8763 96.8996 48.7379 96.9273 48.6964 97.0691C48.6514 97.2213 48.7691 97.294 48.8867 97.3459C48.987 97.3908 49.0943 97.422 49.1946 97.4635C49.5094 97.5845 49.8242 97.7091 49.8761 98.1035C49.928 98.4978 49.7654 98.7988 49.4367 99.0167C48.9455 99.2693 48.4646 99.1828 47.9907 98.9683C47.8835 98.9199 47.7589 98.8472 47.8696 98.6881C47.9872 98.522 48.0772 98.3006 48.3539 98.439Z" fill="#221D1A"/>
<path d="M21.16 97.1449C21.16 96.6226 21.1738 96.0967 21.1565 95.5744C21.1427 95.142 21.454 95.2838 21.672 95.2561C21.921 95.225 22.0525 95.2942 22.049 95.5882C22.0352 96.6502 22.0283 97.7123 22.049 98.7743C22.056 99.1514 21.838 99.1133 21.5959 99.1202C21.3399 99.1272 21.1358 99.1271 21.1496 98.7639C21.1773 98.2208 21.16 97.6811 21.16 97.1449Z" fill="#221E1C"/>
<path d="M59.2237 4.1338C59.0126 3.98851 58.7843 4.01272 58.5456 4.0404C58.089 4.09575 57.9921 3.98851 58.0648 3.55263C58.2654 2.35568 58.2654 2.35223 59.4831 2.36952C59.6388 2.37298 59.8809 2.2692 59.8948 2.56671C59.9086 2.85383 59.7287 2.95416 59.4727 2.96107C59.2929 2.96453 59.113 2.96453 58.9331 2.96453C58.7151 2.96453 58.7082 3.13404 58.6875 3.2828C58.6632 3.47998 58.8085 3.46268 58.9331 3.46268C59.1545 3.46614 59.3759 3.48344 59.5627 3.62527C60.0089 4.0058 60.1127 4.4486 59.874 4.94675C59.6561 5.39993 59.0957 5.66284 58.5871 5.54522C58.4107 5.50371 58.2412 5.45182 58.0855 5.35842C57.9817 5.29615 57.8261 5.24426 57.9264 5.08859C58.0025 4.96751 58.0924 4.81876 58.2896 4.8914C58.3796 4.926 58.4695 4.96405 58.556 5.0021C58.8085 5.10934 59.0542 5.12664 59.2306 4.8914C59.407 4.65271 59.4347 4.38287 59.2237 4.1338Z" fill="#211D1B"/>
<path d="M46.3722 95.6989C46.7908 95.4463 46.9499 95.5155 46.9464 95.9722C46.9464 96.2351 46.9845 96.408 47.3062 96.3665C47.5034 96.3389 47.6141 96.415 47.6106 96.6433C47.6106 96.8612 47.5207 96.9581 47.3166 96.9304C47.0122 96.8889 46.9257 97.0342 46.9499 97.3144C46.9672 97.5185 46.9534 97.7295 46.9534 97.9371C46.9534 98.2208 46.8773 98.5494 47.3616 98.5079C47.4861 98.4975 47.5242 98.6809 47.6106 98.7673C47.6902 98.8711 47.6349 98.9472 47.5553 99.013C47.1817 99.3243 46.5036 99.1894 46.2442 98.75C46.0816 98.2969 46.1923 97.8264 46.1646 97.3663C46.1542 97.1622 46.1854 96.9719 45.919 96.8681C45.7391 96.799 45.7772 96.5983 45.874 96.4426C46.3376 96.3942 46.2719 95.9895 46.3722 95.6989Z" fill="#211C1A"/>
<path d="M19.4503 97.132C19.4503 97.6855 19.4364 98.239 19.4537 98.7925C19.4641 99.1488 19.2393 99.1004 19.0144 99.1142C18.7653 99.1281 18.6304 99.0797 18.6339 98.7822C18.6477 97.6752 18.6477 96.5682 18.6339 95.4646C18.6304 95.1602 18.7826 95.136 19.0248 95.1394C19.2669 95.1429 19.4641 95.1394 19.4537 95.475C19.4399 96.025 19.4503 96.5785 19.4503 97.132Z" fill="#251F1E"/>
<path d="M48.6888 3.34851C48.4813 3.33814 48.4155 3.47305 48.3014 3.51802C48.1388 3.58375 48.0419 3.49381 47.9485 3.38311C47.8551 3.26895 47.8517 3.16171 47.9762 3.06139C48.2218 2.86074 48.4605 2.64972 48.7096 2.45254C48.8756 2.32108 49.0832 2.32454 49.2631 2.39373C49.4464 2.46291 49.3703 2.6601 49.3703 2.79847C49.3772 3.42116 49.3772 4.04385 49.3703 4.66308C49.3669 4.88448 49.3599 5.08858 49.6782 5.06782C49.865 5.05398 49.9031 5.18544 49.8996 5.34457C49.8961 5.5037 49.8062 5.56251 49.6609 5.56251C49.2181 5.56251 48.7753 5.55905 48.3325 5.56251C48.163 5.56251 48.0765 5.50024 48.0765 5.32036C48.0765 5.15085 48.1457 5.04707 48.3221 5.06782C48.6681 5.10933 48.6992 4.91215 48.6923 4.63886C48.6784 4.21682 48.6888 3.78785 48.6888 3.34851Z" fill="#262121"/>
<path d="M54.8406 97.7642C54.8406 98.1102 54.8268 98.4561 54.8441 98.7986C54.8614 99.1134 54.6711 99.1203 54.4463 99.1134C54.2387 99.1065 54.0242 99.1514 54.0311 98.8193C54.0415 98.1032 54.045 97.3837 54.0277 96.6676C54.0173 96.3044 54.256 96.3736 54.4705 96.3563C54.7196 96.339 54.8614 96.3978 54.8475 96.6918C54.8268 97.0481 54.8406 97.4045 54.8406 97.7642Z" fill="#25211F"/>
<path d="M12.3206 97.6857C12.3206 97.3398 12.3344 96.9938 12.3171 96.6479C12.3033 96.3504 12.4867 96.3504 12.6942 96.3573C12.8949 96.3642 13.1232 96.302 13.1197 96.641C13.1093 97.3744 13.1128 98.1043 13.1197 98.8377C13.1232 99.1456 12.9122 99.104 12.7219 99.104C12.5282 99.104 12.3137 99.149 12.3206 98.8411C12.3241 98.4606 12.3206 98.0732 12.3206 97.6857Z" fill="#231D1C"/>
<path d="M60.7553 97.7372C60.7553 98.097 60.7449 98.4568 60.7587 98.8166C60.7726 99.1487 60.5477 99.1106 60.3401 99.1106C60.1395 99.114 59.9492 99.1279 59.9527 98.8269C59.9631 98.0935 59.9665 97.3636 59.9527 96.6302C59.9492 96.3154 60.1568 96.3604 60.3436 96.3639C60.5269 96.3673 60.7553 96.305 60.7518 96.6198C60.7518 96.9935 60.7553 97.3671 60.7553 97.7372Z" fill="#231E1C"/>
<path d="M54.4241 95.1318C54.7286 95.1699 54.9154 95.3117 54.9188 95.6058C54.9188 95.8998 54.7286 96.0728 54.4518 96.0728C54.1716 96.0728 53.9848 95.9033 53.9848 95.6058C53.9779 95.3117 54.1647 95.1733 54.4241 95.1318Z" fill="#2B2725"/>
<path d="M13.207 95.6105C13.1759 95.8942 13.0133 96.0706 12.7262 96.0706C12.4563 96.0741 12.2765 95.9046 12.2661 95.6347C12.2557 95.3441 12.4218 95.1539 12.7158 95.1435C13.0064 95.1366 13.1655 95.3165 13.207 95.6105Z" fill="#282221"/>
<path d="M60.3822 95.136C60.6555 95.1844 60.8458 95.3297 60.832 95.6238C60.8216 95.9109 60.6348 96.0839 60.3511 96.0769C60.0709 96.0666 59.891 95.8867 59.8979 95.5995C59.9083 95.3055 60.0951 95.1637 60.3822 95.136Z" fill="#2A2425"/>
<path d="M62.0575 87.7258C61.798 88.3174 61.7081 88.8847 62.2408 89.3932C62.3515 89.497 62.2927 89.5974 62.1716 89.6527C61.4071 89.9917 61.1857 90.5971 61.3102 91.3755C61.0023 90.8289 61.1788 90.1716 61.7634 89.7807C62.0332 89.6008 62.1924 89.497 61.9156 89.1442C61.5731 88.7118 61.6838 88.0925 62.0575 87.7258Z" fill="#A8A4A2"/>
<path d="M63.2075 9.20142C63.2698 9.1945 63.332 9.18758 63.3943 9.18066C64.1035 9.24985 64.5013 9.748 64.8749 10.2738C64.8784 10.3534 64.8818 10.4295 64.8853 10.5091C64.8334 10.5437 64.7711 10.5437 64.7365 10.4987C64.3422 9.99362 63.8302 9.6373 63.2698 9.3398C63.2179 9.31904 63.2006 9.26369 63.2075 9.20142Z" fill="#29A84B"/>
<path d="M41.04 83.0836C39.9572 82.5889 38.9505 82.8172 37.9854 83.4053C38.5838 82.6546 40.4415 82.4263 41.04 83.0836Z" fill="#767472"/>
<path d="M63.8787 87.5636C63.9098 87.4909 63.9721 87.4633 64.0447 87.4702C64.9511 87.567 65.8055 87.3802 66.6185 86.9824C66.1653 87.4183 65.5807 87.5221 64.9926 87.574C64.6259 87.6051 64.2523 87.567 63.8787 87.5636Z" fill="#706E6F"/>
<path d="M2.71086 8.52759C2.70048 8.67634 2.5967 8.68326 2.47908 8.6971C2.24384 8.72131 2.46178 8.80434 2.46178 8.85968C2.33033 8.85968 2.19541 8.85277 2.06396 8.85968C1.8045 8.87698 1.78721 8.71785 1.79759 8.52759C2.10201 8.52759 2.40643 8.52759 2.71086 8.52759Z" fill="#F1F6F4"/>
<path d="M40.2175 96.9305C40.2279 97.2211 40.0688 97.4806 40.0861 97.7746C40.1138 98.2416 40.3421 98.6014 40.6361 98.937C39.9719 98.598 39.7713 97.6259 40.2175 96.9305Z" fill="#686766"/>
<path d="M3.12484 96.2745C2.8896 97.0183 2.97609 97.7344 3.29436 98.4332C2.80312 97.8866 2.72355 96.873 3.12484 96.2745Z" fill="#7A7676"/>
<path d="M49.6962 80.1743C49.4609 80.7278 49.5336 81.2467 49.8657 81.738C49.3641 81.3574 49.2811 80.6102 49.6962 80.1743Z" fill="#AAA9A8"/>
<path d="M25.6189 89.1334C25.7538 88.573 25.9718 88.0438 26.2866 87.5594C26.1378 88.1164 25.9129 88.6388 25.6189 89.1334Z" fill="#6A6665"/>
<path d="M25.1301 90.224C25.2374 89.8366 25.3584 89.4561 25.6179 89.1378C25.566 89.5322 25.3342 89.8574 25.2097 90.224C25.1855 90.2517 25.1578 90.2552 25.1301 90.224Z" fill="#6A6665"/>
<path d="M3.78599 95.5206C3.56459 95.7697 3.34664 96.0222 3.12524 96.2713C3.21519 95.9081 3.43313 95.6555 3.78599 95.5206Z" fill="#7A7676"/>
<path d="M23.0413 88.8051C23.2315 89.0783 23.4598 89.3378 23.3699 89.7148C23.2869 89.4001 23.0759 89.1337 23.0413 88.8051Z" fill="#6E6C69"/>
<path d="M25.1311 90.2244C25.1588 90.2244 25.183 90.2244 25.2106 90.2244C25.1622 90.5011 25.0688 90.7571 24.8682 90.9612C24.8751 90.6845 25.0584 90.4734 25.1311 90.2244Z" fill="#ACAAA8"/>
<path d="M1.80371 72.8577C1.91095 72.8923 2.01819 72.9234 2.12543 72.958C2.205 72.9718 2.23959 73.0203 2.23959 73.0998C2.20154 73.1102 2.16695 73.1171 2.12889 73.1275C1.97668 73.086 1.84868 73.0237 1.80371 72.8577Z" fill="#9BDCA3"/>
<path d="M24.6951 91.3721C24.6882 91.2061 24.747 91.0712 24.8681 90.9604C24.8923 91.13 24.8404 91.2718 24.6951 91.3721Z" fill="#ACAAA8"/>
<path d="M2.2391 73.0987C2.20104 73.0503 2.16299 73.0053 2.12494 72.9569C1.96581 72.6836 1.651 72.5764 1.47803 72.3065C1.14939 71.7876 1.05599 71.2168 1.05253 70.6253C1.04907 64.9277 1.04907 59.2266 1.04907 53.529C1.04907 39.7261 1.04907 25.9198 1.05253 12.1169C1.05253 11.5807 1.11134 11.0479 1.21512 10.5186C1.72711 9.6607 2.43974 9.18677 3.47755 9.18677C23.2064 9.19369 42.9352 9.19369 62.6674 9.19369C62.8473 9.19369 63.0272 9.19715 63.2071 9.2006C63.8782 9.49465 64.4386 9.92361 64.8814 10.5082H64.878C64.9748 11.0583 65.1271 11.6049 65.0406 12.1757C65.0129 12.3521 65.0336 12.5354 65.0336 12.7153C65.0336 32.0532 65.0336 51.3911 65.0302 70.729C65.0302 70.9712 65.1063 71.2307 64.9091 71.4417C64.6981 71.5455 64.6393 71.4209 64.6254 71.248C64.6081 71.0438 64.6185 70.8397 64.6185 70.6391C64.622 70.5561 64.622 70.4765 64.6531 70.3969C64.788 70.1652 64.7431 69.9126 64.7431 69.667C64.7465 60.8594 64.7465 52.0519 64.7465 43.2443C64.7465 33.136 64.7465 23.0277 64.7431 12.9229C64.7431 12.7499 64.7984 12.5631 64.6912 12.4074C64.6151 12.6012 64.6566 12.7984 64.6566 12.9886C64.6531 31.8976 64.6531 50.8065 64.6531 69.712C64.6531 69.9749 64.667 70.2378 64.6185 70.4973C64.6081 71.0508 64.622 71.6077 64.6185 72.1612C64.6151 72.2027 64.6012 72.2408 64.5805 72.2788C64.4213 72.4207 64.3314 72.6179 64.2034 72.7839L64.2103 72.7874C64.027 72.8704 63.8678 72.9915 63.6983 73.1022C63.6707 73.1368 63.6464 73.1748 63.6188 73.2094C63.3213 73.2855 63.0203 73.2959 62.7159 73.2959C43.1393 73.2959 23.5627 73.2959 3.98608 73.2924C3.40491 73.2924 2.80643 73.3201 2.2391 73.0987Z" fill="#1DA737"/>
<path d="M64.8723 71.4531C64.9519 71.2144 64.9588 70.9687 64.9588 70.7162C64.9553 52.9143 64.9623 35.1123 64.9484 17.3104C64.945 15.0445 65.0764 12.7752 64.8827 10.5093C65.156 10.8691 65.0591 11.3049 65.1214 11.7028C65.1595 11.9449 65.1283 12.2009 65.1283 12.45C65.1283 31.8674 65.1283 51.2884 65.1283 70.7058C65.1283 71.0691 65.0937 71.4219 65.0315 71.7782C64.9484 71.8751 64.9796 72.0273 64.8689 72.1138C64.7685 72.2383 64.7305 72.4148 64.5471 72.4666C64.4918 72.4078 64.4849 72.349 64.5368 72.2833L64.5402 72.2798C64.6821 72.0169 64.6302 71.6745 64.8723 71.4531Z" fill="#29A84B"/>
<path d="M64.5392 72.2838C64.5427 72.3461 64.5461 72.4049 64.5496 72.4672C64.5046 72.647 64.3939 72.7543 64.2105 72.7854C64.1829 72.5294 64.2901 72.3599 64.5392 72.2838Z" fill="#1FA735"/>
<path d="M63.7092 73.1029C63.7957 72.8608 63.9583 72.7466 64.2212 72.7882C64.1243 73.013 63.9479 73.1099 63.7092 73.1029Z" fill="#3BA44E"/>
<path d="M64.8718 72.114C64.8648 71.9722 64.8856 71.8442 65.0343 71.7784C65.0309 71.9168 65.0897 72.0829 64.8718 72.114Z" fill="#7BB989"/>
<path fill-rule="evenodd" clip-rule="evenodd" d="M3.00843 83.9005C3.008 84.2981 3.00756 84.6958 3.00756 85.0938C3.00756 85.4465 3.00791 85.7995 3.00825 86.1525C3.00944 87.3885 3.01064 88.6257 2.99719 89.8608C2.99373 90.1756 3.06637 90.3036 3.40885 90.2967C4.18271 90.2855 4.95514 90.2873 5.72798 90.289C6.15741 90.29 6.58697 90.291 7.01698 90.2897C8.20354 90.2863 9.31746 90.0165 10.3103 89.3384C12.0815 88.1311 12.8564 85.7891 12.2337 83.5474C11.6525 81.4545 9.78793 79.9946 7.50475 79.9116C6.71081 79.8811 5.91568 79.8829 5.12075 79.8846C4.56138 79.8858 4.00212 79.887 3.44344 79.877C3.09751 79.8701 2.99719 79.9808 3.00065 80.3233C3.01102 81.5167 3.00973 82.7081 3.00843 83.9005ZM5.43856 84.3261C5.43813 84.5715 5.4377 84.817 5.4377 85.0627V88.0447V88.0862C5.42386 88.2868 5.455 88.4425 5.71445 88.4356C5.9263 88.4295 6.13857 88.4324 6.35097 88.4352C6.74553 88.4405 7.14054 88.4458 7.53408 88.3941C8.53038 88.2626 9.24993 87.7368 9.6443 86.8062C10.049 85.8583 10.0698 84.869 9.82072 83.8796C9.48171 82.527 8.52346 81.7797 7.12587 81.7451C6.9413 81.7408 6.75673 81.7425 6.57241 81.7442C6.31453 81.7465 6.05715 81.7489 5.80093 81.7348C5.49997 81.7175 5.42732 81.8386 5.43078 82.1188C5.44116 82.8555 5.43986 83.5903 5.43856 84.3261Z" fill="#1E1A18"/>
<path fill-rule="evenodd" clip-rule="evenodd" d="M62.2693 87.5616C62.1937 87.6159 62.1182 87.6701 62.0557 87.7262C61.6475 88.2625 61.7374 88.8851 62.0246 89.2138C62.246 89.4698 62.1941 89.5701 61.9346 89.7361C61.267 90.1651 61.1251 90.5802 61.3119 91.3794C61.5022 91.8325 61.8308 92.1715 62.2736 92.3653C63.7681 93.0156 65.2798 93.0468 66.7708 92.3618C67.4869 92.0332 68.0093 91.4935 68.2168 90.6979C68.4901 89.6497 68.03 88.8125 67.0026 88.4977C66.4975 88.342 65.9717 88.3109 65.4459 88.2867C65.3253 88.2803 65.2045 88.2773 65.0838 88.2742C64.7473 88.2658 64.4113 88.2574 64.0829 88.176C63.6816 88.0791 63.6366 87.9096 63.8822 87.5637C64.0372 87.4834 64.2033 87.4983 64.3644 87.5128C64.4047 87.5165 64.4447 87.5201 64.4842 87.5221C65.2556 87.5637 65.9682 87.3976 66.6221 86.9825C67.3485 86.4843 67.6841 85.7855 67.5699 84.9172C67.525 84.5782 67.5941 84.4571 67.9297 84.3914C68.4832 84.2842 68.6008 84.0489 68.497 83.3605C68.4494 83.0459 68.2605 83.0761 68.0729 83.1061C67.9883 83.1197 67.9039 83.1332 67.8328 83.1149C67.7443 83.091 67.6474 83.0968 67.5503 83.1027C67.5071 83.1054 67.4638 83.108 67.4212 83.108C66.802 83.108 66.1966 83.0872 65.5843 82.8935C64.7021 82.6133 63.7992 82.7067 62.9517 83.0907C61.4953 83.7514 61.0905 85.4534 62.0868 86.6123C62.1531 86.6888 62.2499 86.7516 62.3438 86.8126C62.5048 86.9172 62.6574 87.0163 62.6334 87.1693C62.6118 87.3157 62.4404 87.4387 62.2693 87.5616ZM64.592 86.1927C63.952 86.1858 63.5576 85.8122 63.5576 85.2103C63.5576 84.5737 63.9347 84.2347 64.63 84.2451C65.2942 84.2555 65.6471 84.6049 65.6333 85.2345C65.6229 85.8572 65.2458 86.1997 64.592 86.1927ZM64.641 91.327L64.5389 91.3223H64.5389C64.2133 91.3079 63.8894 91.2935 63.5825 91.1713C63.2642 91.0433 63.0878 90.8219 63.1743 90.4587C63.2573 90.1128 63.5444 89.9121 63.8903 89.9329C64.0717 89.9417 64.2535 89.9455 64.4353 89.9493C64.7494 89.9558 65.0633 89.9623 65.3744 89.9951L65.442 90.0021C65.783 90.0364 66.1638 90.0747 66.2254 90.5417C66.2739 90.9119 65.9833 91.1644 65.4228 91.2578C65.2553 91.2846 65.0862 91.2955 64.9176 91.3065C64.8252 91.3124 64.7329 91.3184 64.641 91.327Z" fill="#1E1A17"/>
<path fill-rule="evenodd" clip-rule="evenodd" d="M42.2994 84.8037C42.0953 84.0842 41.7252 83.4615 41.0402 83.0844C39.947 82.4998 38.9404 82.7246 37.989 83.4061C37.962 83.4293 37.9341 83.4519 37.9061 83.4747C37.8587 83.5131 37.8111 83.5516 37.7676 83.5929C37.6327 83.7175 37.522 83.7348 37.484 83.5203C37.3871 82.9564 37.0066 82.8388 36.5084 82.8803C36.287 82.8976 36.0656 82.8976 35.8442 82.8803C35.5744 82.8596 35.4845 82.9668 35.4845 83.2366C35.4914 86.2636 35.4914 89.2871 35.4845 92.314C35.481 92.5769 35.5882 92.6461 35.8269 92.6392C36.3251 92.6254 36.8198 92.6219 37.3179 92.6392C37.605 92.6496 37.7123 92.5596 37.7054 92.2656C37.6919 91.7276 37.6931 91.1916 37.6943 90.6545C37.6947 90.501 37.695 90.3473 37.695 90.1934C37.695 90.1823 37.6949 90.1711 37.6948 90.16C37.6937 89.9852 37.6926 89.8269 37.9821 89.9928C39.3866 90.7919 41.016 90.3802 41.8739 88.9999C42.6938 87.6819 42.7111 86.2532 42.2994 84.8037ZM37.691 85.5503V86.6712C37.6892 86.8856 37.6892 87.1001 37.6892 87.3146C37.6892 87.5291 37.6892 87.7436 37.6875 87.958C37.6875 88.1275 37.6979 88.2763 37.8363 88.4112C38.4105 88.9751 39.5383 88.8886 39.8946 88.1794C40.4204 87.1382 40.4066 86.0381 39.9603 84.9692C39.7527 84.471 39.2235 84.3257 38.6008 84.4952C38.0058 84.6578 37.691 85.0245 37.691 85.5503Z" fill="#1E1A18"/>
<path fill-rule="evenodd" clip-rule="evenodd" d="M19.7252 88.3677C19.7262 88.1438 19.7271 87.9199 19.7271 87.6956H19.7271C19.7237 87.6956 19.7237 87.6956 19.7167 87.699C19.7167 87.4748 19.7186 87.2505 19.7205 87.0263C19.7248 86.5036 19.7292 85.9814 19.7098 85.4608C19.6614 84.212 18.9903 83.233 17.8763 82.9147C16.3992 82.4927 15.0362 82.8282 13.8081 83.7346C13.7216 83.8003 13.6352 83.8695 13.6525 84.0044C13.7424 84.7413 14.4931 85.1668 15.1711 84.8554C15.2317 84.8271 15.2919 84.7978 15.3521 84.7685C15.6151 84.6404 15.8781 84.5124 16.1709 84.4645C17.098 84.3123 17.6065 84.7655 17.5719 85.703C17.565 85.914 17.4958 85.9936 17.2813 86.0005C16.925 86.0109 16.5618 86.0282 16.2089 86.0801C15.351 86.2046 14.5242 86.4225 13.86 87.021C13.2615 87.5572 13.1335 88.2387 13.3238 88.9894C13.5037 89.6986 13.9776 90.131 14.6799 90.297C15.7073 90.5426 16.6586 90.3697 17.4854 89.6882C17.7068 89.5083 17.8521 89.4529 17.9525 89.7885C18.0632 90.1656 18.3468 90.297 18.717 90.2901C18.7446 90.2897 18.7723 90.2892 18.8 90.2887C18.9937 90.2853 19.1874 90.2819 19.3812 90.297C19.6545 90.3143 19.7375 90.2002 19.7306 89.9338C19.7209 89.4108 19.7231 88.8896 19.7252 88.3677ZM15.4962 88.7155C16.1465 89.1376 16.7346 88.9196 17.3123 88.5495C17.6388 88.394 17.6237 88.1299 17.6087 87.8661C17.6036 87.7777 17.5986 87.6893 17.6064 87.6051C17.6306 87.3595 17.5061 87.2557 17.2639 87.2661C16.8142 87.2868 16.3679 87.3318 15.9459 87.5117C15.3612 87.8265 15.2229 88.2036 15.4962 88.7155Z" fill="#1E1A18"/>
<path d="M17.3123 88.5496C17.6306 88.259 17.5441 87.875 17.5406 87.5152C17.5406 87.3111 17.3849 87.3249 17.2466 87.3284C16.7899 87.3353 16.3471 87.4218 15.9112 87.5602C15.8524 87.6051 15.7971 87.6051 15.7383 87.5567C16.2468 87.2661 16.8038 87.2142 17.3711 87.2212C17.4368 87.2212 17.5129 87.2419 17.5614 87.28C17.8104 87.4875 17.6236 88.4112 17.3123 88.5496Z" fill="#5B5655"/>
<path d="M15.7413 87.5564C15.8001 87.5564 15.8554 87.5599 15.9142 87.5599C15.3849 87.9369 15.3331 88.0788 15.4991 88.7153C15.1601 88.3347 15.2466 87.9231 15.7413 87.5564Z" fill="#75706F"/>
<path d="M3.12481 8.52728C3.04178 8.52728 2.95876 8.52728 2.87573 8.52728C2.88957 8.44426 2.91033 8.36469 3.02103 8.37853C3.10405 8.38891 3.11443 8.46155 3.12481 8.52728Z" fill="#F1F6F4"/>
<path fill-rule="evenodd" clip-rule="evenodd" d="M68.6578 97.5399C68.6576 97.4121 68.6574 97.2842 68.6574 97.156C68.6574 96.99 68.6565 96.8239 68.6555 96.6579C68.6533 96.2704 68.6512 95.883 68.6608 95.4956C68.6678 95.2223 68.564 95.1496 68.3011 95.1289C67.9171 95.1012 67.8098 95.2569 67.8479 95.6063C67.8613 95.7316 67.8588 95.857 67.8563 95.9823C67.855 96.0507 67.8536 96.1191 67.8548 96.1874C67.8617 96.3777 67.8306 96.4538 67.5954 96.3881C66.9277 96.2013 66.4296 96.4849 66.2012 97.1353C66.0663 97.5262 66.0698 97.924 66.1736 98.3184C66.3742 99.0864 66.9658 99.3458 67.6611 98.9618C67.673 98.9553 67.6845 98.9487 67.6956 98.9424C67.8073 98.8786 67.8831 98.8354 67.9932 98.9895C68.1246 99.1763 68.3495 99.1314 68.5294 99.0829C68.6807 99.0424 68.6695 98.9111 68.659 98.788C68.6561 98.7535 68.6532 98.7196 68.6539 98.6886C68.6591 98.3047 68.6585 97.9228 68.6578 97.5399ZM67.8602 97.799V97.6745C67.8567 97.5949 67.8533 97.5119 67.8602 97.4254C67.8775 97.166 67.8222 96.9584 67.5108 96.9273C67.2064 96.8961 67.0473 97.0656 66.9815 97.332C66.9435 97.4877 66.9262 97.6572 66.9366 97.8198C66.938 97.8421 66.9394 97.8647 66.9407 97.8873C66.9577 98.1814 66.9759 98.4953 67.3967 98.5082C67.7391 98.5186 67.8602 98.3179 67.8602 97.799Z" fill="#201C19"/>
<path fill-rule="evenodd" clip-rule="evenodd" d="M9.30883 97.7581C9.30939 97.8882 9.30996 98.0186 9.30996 98.1491C9.31076 98.2578 9.31211 98.3665 9.31346 98.4751C9.31797 98.8368 9.32246 99.198 9.3065 99.5571C9.29266 99.8581 9.35147 99.9999 9.70779 99.9999C10.0606 99.9999 10.1402 99.8546 10.1125 99.5571C10.1091 99.5156 10.1099 99.4741 10.1108 99.4326C10.1117 99.3911 10.1125 99.3495 10.1091 99.308C10.0883 99.059 10.154 99.0071 10.4135 99.0866C10.967 99.2561 11.4582 99.0105 11.7004 98.4743C11.9114 98.0004 11.9149 97.5092 11.7523 97.0214C11.5274 96.3503 10.9566 96.1289 10.3374 96.4783C10.3332 96.4807 10.329 96.483 10.3248 96.4854C10.1731 96.5713 10.0774 96.6255 9.93264 96.4437C9.81503 96.2949 9.59363 96.3261 9.42758 96.3814C9.28152 96.4319 9.29447 96.5577 9.30681 96.6777C9.31054 96.714 9.31422 96.7497 9.31342 96.7827C9.30601 97.1087 9.30742 97.433 9.30883 97.7581ZM10.1088 97.6428C10.1084 97.6797 10.108 97.7167 10.108 97.7537C10.108 97.7845 10.1084 97.8156 10.1088 97.8471C10.1095 97.9113 10.1103 97.977 10.108 98.0443C10.0976 98.283 10.1322 98.4906 10.4228 98.5321C10.7169 98.5771 10.8933 98.4387 10.9798 98.1654C11.0663 97.8956 11.049 97.6223 11.004 97.349C10.9625 97.1068 10.8345 96.9269 10.5646 96.9512C10.2879 96.9754 10.0942 97.1068 10.108 97.4251C10.1103 97.4965 10.1095 97.5694 10.1088 97.6428Z" fill="#211B19"/>
<path fill-rule="evenodd" clip-rule="evenodd" d="M43.0423 4.09825C43.4712 3.78345 43.5335 3.36486 43.3709 2.88747C43.2118 2.6038 42.9627 2.45159 42.6514 2.38586C42.346 2.32574 42.0389 2.33416 41.7325 2.34255C41.5981 2.34624 41.4639 2.34992 41.3299 2.34781C41.1846 2.34781 41.1016 2.44467 41.1016 2.58996C41.1009 2.68135 41.1002 2.77273 41.0994 2.86411C41.0929 3.68597 41.0864 4.50755 41.105 5.32633C41.1105 5.59973 41.2975 5.59007 41.4764 5.58083C41.5239 5.57838 41.5708 5.57596 41.6136 5.57886C41.8211 5.5927 41.9111 5.49583 41.8903 5.27789C41.873 5.08763 41.8869 4.8939 41.9041 4.70018C41.9318 4.35424 42.0771 4.375 42.2951 4.54451C42.3341 4.60998 42.3751 4.67416 42.416 4.73814C42.509 4.88374 42.6014 5.02827 42.6687 5.18449C42.814 5.53043 43.0803 5.58232 43.4055 5.56502C43.6407 5.55464 43.7065 5.47854 43.5716 5.26752C43.503 5.16209 43.4362 5.05526 43.3695 4.9484C43.2545 4.76424 43.1394 4.57999 43.0146 4.40267C42.9247 4.27468 42.9074 4.19511 43.0423 4.09825ZM41.8707 3.22284C41.8729 3.27938 41.8752 3.33621 41.8643 3.38633C41.8761 3.43823 41.8736 3.49852 41.871 3.55874C41.8639 3.72733 41.8568 3.8954 42.1652 3.87756C42.4731 3.8568 42.7083 3.75648 42.7256 3.40017C42.7395 3.08536 42.5146 2.90894 42.141 2.90894C41.8582 2.90894 41.8644 3.06473 41.8707 3.22284Z" fill="#211C1A"/>
<path fill-rule="evenodd" clip-rule="evenodd" d="M57.3873 5.0294C57.5672 4.70768 57.6122 4.35483 57.626 3.97775L57.6257 3.97209C57.6016 3.57599 57.5764 3.16308 57.3354 2.80157C56.8926 2.15466 55.9136 2.15466 55.5331 2.83962C55.1318 3.56263 55.1283 4.33753 55.5227 5.06054C55.9274 5.8043 56.9722 5.76625 57.3873 5.0294ZM56.7979 4.76011C56.9051 4.51795 56.9155 4.25504 56.9189 3.99213C56.9189 3.71538 56.9086 3.44209 56.8082 3.17917C56.7425 3.01658 56.6387 2.88513 56.4485 2.88167C56.2582 2.87821 56.1302 2.99237 56.0783 3.16188C55.9088 3.70154 55.9053 4.24466 56.0887 4.78087C56.1406 4.93308 56.2547 5.0334 56.4277 5.03686C56.6214 5.04032 56.7287 4.91924 56.7979 4.76011Z" fill="#211C1A"/>
<path d="M7.49846 98.6131C7.30474 98.6062 7.15944 98.5405 7.1802 98.3571C7.21479 98.0561 7.47425 98.0423 7.70602 98.0112C7.86516 97.9904 7.98278 98.0388 7.96894 98.2257C7.94126 98.5266 7.71294 98.5785 7.49846 98.6131Z" fill="#DCD8D6"/>
<path fill-rule="evenodd" clip-rule="evenodd" d="M64.7889 97.8816C64.8396 97.8824 64.8903 97.8832 64.9411 97.8832C65.1348 97.8797 65.3285 97.8797 65.5257 97.8832C65.7091 97.8832 65.799 97.8001 65.8198 97.6133C65.882 97.0322 65.4807 96.4752 64.9065 96.3576C64.2769 96.2296 63.6715 96.5236 63.4259 97.0771C63.1491 97.6964 63.3325 98.5093 63.8341 98.8829C64.3253 99.2496 65.1729 99.2323 65.6191 98.8587C65.7748 98.7307 65.7713 98.6269 65.6502 98.4816C65.4842 98.2845 65.3182 98.3467 65.1313 98.4298C64.8546 98.5543 64.5709 98.6027 64.3184 98.3744C64.2008 98.2706 64.0935 98.1357 64.1523 97.9766C64.1919 97.8685 64.2957 97.8749 64.3949 97.881C64.4259 97.8829 64.4564 97.8848 64.4844 97.8832C64.5859 97.8786 64.6874 97.8801 64.7889 97.8816ZM64.4043 97.4113C64.4771 97.4033 64.5512 97.3951 64.6019 97.4328C64.6577 97.4036 64.7298 97.4082 64.7996 97.4125C64.9288 97.4207 65.0504 97.4283 65.0482 97.2217C65.0482 96.99 64.8371 96.8897 64.6088 96.8966C64.377 96.9035 64.1695 97.0211 64.166 97.239C64.166 97.4377 64.2833 97.4247 64.4043 97.4113Z" fill="#211D1C"/>
<path fill-rule="evenodd" clip-rule="evenodd" d="M18.0527 98.3083C18.0524 98.2345 18.052 98.1607 18.052 98.0869C18.052 97.9208 18.052 97.7582 18.0451 97.5887C18.0347 96.4471 17.1456 95.949 16.1389 96.5267C16.1222 96.5366 16.1045 96.5463 16.0865 96.5561C15.9605 96.6251 15.8236 96.7 15.9175 96.8969C16.0144 97.1044 16.1735 97.1771 16.3949 97.0906C16.4271 97.0778 16.459 97.0641 16.4909 97.0503C16.6238 96.9929 16.757 96.9355 16.9104 96.9522C17.1249 96.973 17.2286 97.101 17.2494 97.3051C17.2734 97.515 17.1414 97.5221 17.009 97.5293C16.9886 97.5304 16.9683 97.5315 16.9484 97.5334C16.6302 97.5645 16.3188 97.6233 16.049 97.8101C15.7688 98.0004 15.6615 98.2702 15.7377 98.6023C15.8172 98.9448 16.0594 99.1039 16.3915 99.142C16.6163 99.1662 16.8377 99.1385 17.0315 99.0209C17.2079 98.9137 17.3151 98.8583 17.5192 99.0313C17.7856 99.2596 18.0451 99.1005 18.052 98.7511C18.0543 98.6035 18.0535 98.4559 18.0527 98.3083ZM16.4897 98.3775C16.4794 98.5678 16.6419 98.6093 16.853 98.6093C17.0398 98.5643 17.2646 98.5089 17.275 98.2045C17.2819 98.0385 17.1712 97.9935 17.0329 98.0142C17.0097 98.0173 16.986 98.02 16.9623 98.0227C16.7415 98.0479 16.5085 98.0745 16.4897 98.3775Z" fill="#211C1A"/>
<path fill-rule="evenodd" clip-rule="evenodd" d="M29.8868 97.882C29.9375 97.8824 29.9884 97.8828 30.0392 97.8828C30.2468 97.8793 30.4544 97.8793 30.6585 97.8793C30.8487 97.8759 30.9179 97.7721 30.9352 97.5922C30.9906 96.9834 30.5685 96.4368 29.9666 96.3434C29.3335 96.2465 28.7766 96.5371 28.5379 97.0871C28.268 97.7064 28.4583 98.5263 28.9565 98.8929C29.4269 99.2389 30.2676 99.232 30.7104 98.8756C30.7153 98.8718 30.7203 98.8679 30.7253 98.864C30.8187 98.7912 30.9199 98.7124 30.828 98.5712C30.8263 98.5686 30.8245 98.5661 30.8228 98.5635C30.7412 98.4409 30.6512 98.3058 30.4717 98.3498C30.4079 98.3648 30.3462 98.392 30.2843 98.4193C30.232 98.4423 30.1796 98.4654 30.1257 98.4813C29.8628 98.5574 29.6034 98.5643 29.3993 98.3394C29.3162 98.2495 29.2332 98.1353 29.2713 98.0039C29.3106 97.8719 29.416 97.8767 29.5173 97.8813C29.5407 97.8824 29.5639 97.8835 29.5861 97.8828C29.6851 97.8805 29.7857 97.8813 29.8868 97.882ZM30.1912 97.2473C30.1843 97.0121 29.9975 96.9014 29.7726 96.8806C29.5201 96.891 29.2952 96.9913 29.2814 97.2404C29.267 97.4483 29.3963 97.435 29.5255 97.4217C29.5833 97.4158 29.6412 97.4099 29.6861 97.4238C29.7242 97.4341 29.7726 97.4341 29.8106 97.4238C29.8505 97.415 29.8982 97.418 29.9461 97.421C30.0691 97.4287 30.1937 97.4365 30.1912 97.2473Z" fill="#211C1A"/>
<path fill-rule="evenodd" clip-rule="evenodd" d="M41.8113 96.4126C41.2371 96.1878 40.6732 96.3711 40.2166 96.9316C39.9018 97.876 40.0125 98.4087 40.6317 98.9414C41.1852 99.2701 41.7352 99.2044 42.2749 98.8999C42.3787 98.8411 42.5136 98.7616 42.4375 98.6093C42.3648 98.4606 42.2645 98.3084 42.0604 98.3534C41.9945 98.3669 41.9307 98.3946 41.8667 98.4225C41.8165 98.4443 41.7662 98.4662 41.7145 98.4814C41.417 98.5713 41.1299 98.5644 40.943 98.2738C40.8081 98.0628 40.7874 97.876 41.1368 97.8829C41.3765 97.8852 41.6147 97.8844 41.8534 97.8836C41.9729 97.8833 42.0926 97.8829 42.2126 97.8829C42.4029 97.8829 42.5205 97.8206 42.5378 97.6027C42.5793 97.1045 42.2784 96.596 41.8113 96.4126ZM41.1208 97.4231C41.1881 97.4183 41.2569 97.4134 41.3094 97.439C41.3675 97.4067 41.4439 97.4154 41.5184 97.4238C41.6437 97.438 41.7638 97.4517 41.7834 97.2695C41.8076 97.017 41.5896 96.8855 41.3406 96.8855C41.0949 96.8855 40.8735 97.01 40.877 97.2591C40.8792 97.4405 40.9974 97.432 41.1208 97.4231Z" fill="#211D1A"/>
<path fill-rule="evenodd" clip-rule="evenodd" d="M51.5503 3.54051C51.4964 3.5404 51.4358 3.54028 51.3774 3.44852C51.4644 3.3412 51.5534 3.23281 51.6434 3.12335C51.7825 2.95408 51.9237 2.78226 52.0624 2.60789L52.063 2.60709C52.1322 2.52064 52.2312 2.39681 52.0278 2.37611C52.003 2.37363 51.9778 2.37079 51.9523 2.36792C51.7293 2.34275 51.487 2.31542 51.3255 2.51103C51.2815 2.56527 51.2371 2.61936 51.1927 2.67349C50.8604 3.07855 50.5264 3.48568 50.3188 3.97088C50.1113 4.4552 50.2289 5.00524 50.5679 5.30966C50.9208 5.63138 51.5123 5.68673 51.9621 5.44112C52.3703 5.21972 52.5986 4.73541 52.5052 4.28569C52.4152 3.84289 52.1073 3.59381 51.5884 3.54192C51.5762 3.54057 51.5635 3.54054 51.5503 3.54051ZM51.8343 4.51381C51.8343 4.20247 51.6406 4.05372 51.3396 4.03296C51.0144 4.05717 50.876 4.25782 50.876 4.54841C50.8726 4.84937 51.0179 5.05694 51.343 5.05002C51.6751 5.0431 51.8343 4.82862 51.8343 4.51381Z" fill="#221D1B"/>
<path fill-rule="evenodd" clip-rule="evenodd" d="M54.7594 3.52832C54.7598 3.46375 54.7602 3.39917 54.7602 3.3346C54.7602 3.28045 54.7611 3.2263 54.762 3.17234C54.7642 3.04704 54.7664 2.92276 54.7567 2.80185C54.7542 2.76498 54.758 2.72405 54.7618 2.6826C54.7738 2.55293 54.7862 2.41818 54.6079 2.38673C54.5933 2.38411 54.5784 2.38134 54.5634 2.37854C54.3792 2.34421 54.1675 2.30476 54.0268 2.48705C53.5805 3.06822 53.1377 3.6494 52.7191 4.25133C52.5254 4.52808 52.6915 4.80829 53.027 4.82905C53.2588 4.84288 53.494 4.84634 53.7293 4.82905C54.0268 4.80829 54.217 4.87402 54.1651 5.23033C54.1375 5.43444 54.1894 5.56935 54.4488 5.56935C54.6875 5.56935 54.774 5.47941 54.7602 5.25109C54.7498 5.06082 54.7429 4.89477 54.985 4.78061C55.1614 4.69759 55.1684 4.42776 54.9677 4.34819C54.7569 4.26387 54.7585 4.12711 54.7601 3.98129C54.7604 3.9596 54.7606 3.93772 54.7602 3.91577C54.7579 3.78662 54.7586 3.65747 54.7594 3.52832ZM54.1778 3.58511C54.1782 3.48212 54.1787 3.37042 54.1787 3.24487C53.9615 3.40711 53.8492 3.57726 53.7475 3.73137C53.7147 3.781 53.6831 3.82897 53.6494 3.87448C53.6277 3.9031 53.5999 3.93171 53.5716 3.96087C53.4871 4.04805 53.3978 4.14009 53.4522 4.25155C53.5082 4.37283 53.6239 4.35731 53.74 4.34175C53.7961 4.33422 53.8523 4.32669 53.9019 4.33458C54.0818 4.36571 54.1821 4.27923 54.1787 4.08204C54.1764 3.92468 54.1771 3.76874 54.1778 3.58511Z" fill="#221E1D"/>
<path d="M49.7724 56.6815C49.7654 56.8129 49.7032 56.9167 49.6202 57.017C49.4022 57.4702 49.1358 57.8957 48.9006 58.3385C48.8245 58.5184 48.693 58.6637 48.61 58.8401C48.5028 58.9785 48.3921 59.1169 48.2848 59.2552C47.2955 60.549 46.0535 61.5453 44.6456 62.3444C44.5487 62.3998 44.4622 62.4655 44.3757 62.5347C43.6216 62.9983 42.7844 63.2785 41.9542 63.5656C41.6844 63.659 41.418 63.7697 41.1343 63.8112C39.7782 64.1468 38.4118 64.4166 37.0211 64.5654C35.3952 64.7383 33.7693 64.8041 32.1365 64.8006C28.307 64.7937 24.474 64.7902 20.6444 64.8041C19.8695 64.8075 19.1638 64.6726 18.5757 64.1364C18.1537 63.7282 17.9842 63.2197 17.9842 62.6454C17.9842 53.4539 17.9842 44.2589 17.9842 35.0673C17.9842 34.9012 17.9738 34.7352 18.0188 34.5726C18.0914 34.2336 18.1675 33.8946 18.3682 33.604C18.7764 33.1612 19.2053 32.7495 19.8488 32.6872C24.7127 32.6872 29.5731 32.6457 34.4335 32.7115C36.0352 32.7322 37.6438 32.9329 39.2247 33.2546C39.8301 33.3791 40.439 33.5037 41.034 33.6801C41.2623 33.7735 41.4975 33.8531 41.7259 33.943C42.0026 34.0156 42.2621 34.1471 42.5492 34.1955C42.7187 34.2543 42.8813 34.3443 43.0681 34.3477C43.2826 34.3685 43.4417 34.5173 43.632 34.5968H43.6354C43.9779 34.7214 44.2996 34.8909 44.6248 35.0569C44.7113 35.1642 44.8808 35.1469 44.9569 35.2679C45.1437 35.3544 45.2994 35.4893 45.4827 35.5793C46.2161 36.0498 46.8976 36.5825 47.4753 37.2398C47.7175 37.5996 48.0012 37.9213 48.2848 38.2499C48.444 38.5716 48.7276 38.8138 48.8625 39.1494C49.2085 39.5714 49.2915 40.1491 49.6963 40.5366C49.7793 40.668 49.8589 40.7995 49.8589 40.9621C49.9903 41.4395 50.1875 41.8926 50.3501 42.3597C50.6441 43.1968 50.7306 44.0755 50.8794 44.9438C51.17 46.6354 51.2011 48.3478 51.1284 50.0568C51.08 51.1949 50.9728 52.3296 50.7202 53.4504C50.5957 54.0143 50.4193 54.5678 50.3293 55.1386C50.1148 55.6367 49.9661 56.1695 49.7724 56.6815Z" fill="#FEFEFE"/>
<path d="M64.7067 70.4573C64.7067 70.5126 64.7067 70.568 64.7067 70.6233C64.6514 70.6717 64.596 70.6717 64.5407 70.6233C64.5407 51.2647 64.5407 31.906 64.5476 12.5474C64.5476 12.3709 64.4023 12.1149 64.7067 12.0181C64.8209 12.1634 64.7897 12.3363 64.7897 12.4989C64.7897 31.6604 64.7897 50.8218 64.7897 69.9799C64.7897 70.139 64.8243 70.312 64.7067 70.4573Z" fill="#25A432"/>
<path d="M1.59393 12.0762C1.59393 31.5144 1.59393 50.9526 1.59393 70.3908C1.56971 70.3908 1.54204 70.3908 1.51782 70.3908C1.51782 50.9526 1.51782 31.5144 1.51782 12.0762C1.54204 12.0796 1.56971 12.0796 1.59393 12.0762Z" fill="#19AA36"/>
<path d="M64.7063 70.4566C64.7063 50.9768 64.7063 31.4936 64.7063 12.0139C64.8205 12.0312 64.8723 12.1004 64.8723 12.2146C64.8723 12.3253 64.8723 12.436 64.8723 12.5467C64.8723 31.6735 64.8723 50.8004 64.8654 69.9273C64.8654 70.1003 65.0107 70.3562 64.7063 70.4566Z" fill="#1FA735"/>
<path d="M34.9413 32.2129C34.4708 32.1679 34.066 32.4343 33.6059 32.4343C29.3509 32.4309 25.0959 32.4343 20.8409 32.4343C20.744 32.4343 20.6471 32.4343 20.5503 32.4274C20.4569 32.4205 20.3981 32.3651 20.4015 32.2683C20.4015 32.1679 20.4603 32.116 20.5537 32.1091C20.6506 32.1022 20.7474 32.1022 20.8443 32.1022C25.4038 32.1022 29.9632 32.1022 34.5227 32.1057C34.6645 32.1057 34.8167 32.0642 34.9413 32.2129Z" fill="#1EA63D"/>
<path d="M48.1149 17.3315C48.1668 17.3281 48.2187 17.3211 48.274 17.3177C48.4331 17.1793 48.6303 17.1828 48.8241 17.1828C51.5431 17.1793 54.2622 17.1793 56.9813 17.1828C57.1854 17.1828 57.3999 17.1724 57.5624 17.3419L57.5555 17.3488C57.6662 17.4422 57.6524 17.5702 57.6524 17.6948C57.6524 20.694 57.6628 23.6933 57.6489 26.696C57.6489 26.7237 57.642 26.7514 57.6351 26.7791C57.3653 27.087 56.9882 27.0351 56.6492 27.0385C54.2345 27.0524 51.8233 27.0454 49.4087 27.0454C49.0627 27.0454 48.7203 27.0489 48.3743 27.042C48.1045 27.0385 47.9627 26.9209 48.0284 26.6303C48.1564 26.5335 48.2809 26.6442 48.4089 26.6372C50.7717 26.6684 53.131 26.6407 55.4937 26.6511C56.0057 26.6545 56.5143 26.6407 57.0262 26.658C57.1888 26.6787 57.3549 26.7064 57.3653 26.4608C57.3756 23.7798 57.3687 21.1022 57.3687 18.4247C57.3653 18.3486 57.3653 18.2759 57.3687 18.1998C57.3791 18.0545 57.3583 17.9162 57.2961 17.7812C57.2234 17.6152 57.0643 17.6429 56.9363 17.6429C54.1134 17.6429 51.2871 17.6152 48.4643 17.6567C48.3051 17.6256 48.2636 17.9265 48.0699 17.7951C48.0146 17.6325 47.9903 17.4734 48.1149 17.3315Z" fill="#D2B300"/>
<path d="M48.1148 17.3311C48.1114 17.4936 48.1079 17.6597 48.1045 17.8223C48.2601 17.9607 48.2255 18.1544 48.2255 18.3274C48.2255 20.9253 48.229 23.5233 48.2255 26.1179C48.2255 26.2943 48.2497 26.4811 48.101 26.6229C48.0076 27 48.2809 26.9308 48.4815 26.9308C50.3427 26.9343 52.2004 26.9377 54.0615 26.9308C55.1339 26.9274 56.2063 26.9689 57.2822 26.9031C57.3998 26.8962 57.4967 26.8858 57.5728 26.7924C57.6281 26.7405 57.597 26.6575 57.6454 26.6022C57.68 26.5883 57.7111 26.5953 57.7354 26.6229C57.763 26.872 57.6039 26.9896 57.3998 27.0173C57.1438 27.0554 56.8913 27.1245 56.6249 27.1245C53.93 27.1176 51.2317 27.1211 48.5369 27.1176C47.973 27.1176 47.8554 26.9758 47.9349 26.4327C47.9522 26.3254 47.9384 26.2113 47.9384 26.1006C47.9384 23.3192 47.9349 20.5414 47.9453 17.76C47.9453 17.6147 47.8346 17.3829 48.1148 17.3311Z" fill="#34A834"/>
<path d="M57.5598 17.341C54.6297 17.3375 51.6996 17.3375 48.7695 17.3341C48.6035 17.3341 48.4374 17.3237 48.2749 17.3168C48.2299 16.9674 48.4651 16.995 48.6934 16.995C51.3122 16.9985 53.9344 16.995 56.5531 16.995C56.7884 16.995 57.0236 17.0089 57.2554 16.9916C57.5252 16.9743 57.6013 17.0988 57.5598 17.341Z" fill="#25A632"/>
<path d="M18.0767 34.4318C18.0733 43.6164 18.0733 52.7976 18.0629 61.9822C18.0629 62.7502 18.0767 63.4974 18.5749 64.1409C18.1148 63.9714 18.094 63.532 17.9799 63.155C17.9072 63.0097 17.9453 62.854 17.9453 62.7052C17.9418 53.4825 17.9418 44.2599 17.9453 35.0372C17.9453 34.8884 17.9141 34.7328 17.9799 34.5875C17.966 34.5321 17.8934 34.4768 17.9764 34.4214C18.0075 34.3972 18.0456 34.4007 18.0767 34.4318Z" fill="#58AD66"/>
<path d="M17.9768 34.5864C17.9768 40.7925 17.9802 46.9987 17.9802 53.2013C17.9802 56.5188 17.9802 59.8364 17.9802 63.1505C17.8592 63.0225 17.9041 62.8633 17.9041 62.7146C17.9007 53.4815 17.9007 44.2519 17.9007 35.0188C17.9007 34.877 17.8592 34.7179 17.9768 34.5864Z" fill="#43AE62"/>
<path d="M41.1344 33.7664C39.3078 33.2475 37.4398 32.9465 35.5475 32.8669C30.3446 32.649 25.1348 32.8012 19.9319 32.777C19.8627 32.777 19.7935 32.7701 19.7278 32.7666C19.7866 32.5314 19.9769 32.649 20.0979 32.6455C21.6166 32.6351 23.1353 32.6386 24.6539 32.6386C27.9542 32.6386 31.251 32.6386 34.5512 32.6421C34.7 32.6421 34.8556 32.6005 34.9975 32.6836C36.229 32.7943 37.4674 32.8635 38.6886 33.0883C39.5396 33.2475 40.3872 33.4239 41.2278 33.6418C41.2901 33.6591 41.3419 33.7145 41.3973 33.7525C41.3074 33.8321 41.2209 33.8148 41.1344 33.7664Z" fill="#6AC27D"/>
<path d="M50.2564 55.166C50.3117 54.5779 50.5193 54.0175 50.6369 53.4432C50.8064 52.6337 50.9067 51.8242 51.0001 51.0113C51.1281 49.9285 51.1316 48.8319 51.0763 47.7456C50.9794 45.7634 50.7372 43.7985 50.0765 41.9097C49.9589 41.5776 49.7651 41.2697 49.7686 40.8995C49.9208 40.8684 49.862 41.0275 49.9277 41.0759C50.0661 41.37 50.1872 41.671 50.2598 41.9892C50.4051 42.1276 50.3498 42.3282 50.4224 42.4908C50.5677 42.6603 50.5089 42.8852 50.5919 43.072V43.0685C50.7269 43.3038 50.6819 43.5736 50.758 43.8227C51.1212 45.7703 51.2596 47.7352 51.1939 49.7175C51.1351 51.5302 50.9067 53.3187 50.4086 55.0656C50.3809 55.1694 50.3186 55.2628 50.2702 55.3597C50.2079 55.2974 50.2218 55.2317 50.2564 55.166Z" fill="#D4F3D9"/>
<path d="M47.4812 26.56C47.4812 23.5019 47.4812 20.4472 47.4812 17.3892C47.5089 17.3892 47.5331 17.3892 47.5608 17.3892C47.5608 20.4472 47.5608 23.5019 47.5608 26.56C47.5366 26.56 47.5089 26.56 47.4812 26.56Z" fill="#15AC31"/>
<path d="M47.2405 17.3892C47.2405 20.4472 47.2405 23.5019 47.2405 26.56C47.2128 26.56 47.1886 26.56 47.1609 26.56C47.1609 23.5053 47.1609 20.4472 47.1609 17.3926C47.1886 17.3926 47.2162 17.3892 47.2405 17.3892Z" fill="#26A23C"/>
<path d="M34.9938 32.6873C30.13 32.6838 25.2661 32.6769 20.4022 32.6769C20.1773 32.6769 19.9317 32.6008 19.7242 32.7668C19.188 32.8845 18.804 33.2442 18.4234 33.6075C18.3819 33.6386 18.3439 33.6351 18.3127 33.5936C18.7901 32.8568 19.4682 32.5835 20.3399 32.5869C25.0654 32.6077 29.7944 32.5973 34.5234 32.6042C34.6825 32.6077 34.8589 32.5454 34.9938 32.6873Z" fill="#3CA94F"/>
<path d="M57.6555 26.6232C57.6278 26.6786 57.6001 26.7374 57.5725 26.7927C57.5725 23.8246 57.569 20.853 57.569 17.8848C57.569 17.705 57.5586 17.5251 57.5552 17.3452C57.5863 17.3383 57.6174 17.3348 57.6486 17.3279C57.7212 17.4282 57.6901 17.5424 57.6901 17.6496C57.6901 20.5313 57.6901 23.4164 57.6901 26.298C57.6935 26.4087 57.7178 26.5229 57.6555 26.6232Z" fill="#47BA3F"/>
<path d="M57.6566 26.6232C57.6531 23.5236 57.6531 20.4275 57.6497 17.3279C57.7881 17.449 57.7362 17.6115 57.7362 17.7568C57.7396 20.7146 57.7396 23.6689 57.7362 26.6267C57.7085 26.6232 57.6808 26.6232 57.6566 26.6232Z" fill="#2FA327"/>
<path d="M44.3723 62.4836C44.5349 62.2449 44.8082 62.1549 45.04 62.02C46.1089 61.3973 47.0222 60.5982 47.8317 59.6676C47.9666 59.5154 48.0842 59.3355 48.2849 59.256C48.2053 59.5639 47.8974 59.7161 47.7763 59.9963C47.5826 60.2488 47.3751 60.4841 47.1018 60.657C46.3338 61.387 45.4655 61.975 44.5418 62.4905C44.483 62.5355 44.4277 62.5355 44.3723 62.4836Z" fill="#D2F0DA"/>
<path d="M44.3712 62.4823C44.4266 62.4858 44.4854 62.4858 44.5407 62.4892C43.752 63.0635 42.8249 63.3299 41.9255 63.6481C41.6729 63.7381 41.4273 63.8937 41.1367 63.8176C41.8701 63.5409 42.607 63.278 43.3334 62.9874C43.6863 62.8386 44.0253 62.6484 44.3712 62.4823Z" fill="#6ABD7C"/>
<path d="M47.437 37.2674C46.8489 36.6205 46.1363 36.1258 45.4479 35.5965C45.4202 35.5758 45.4098 35.555 45.4202 35.5343C45.4306 35.5135 45.441 35.5066 45.4513 35.5066C45.9979 35.7764 46.4788 36.1397 46.8939 36.579C47.1049 36.8004 47.4716 36.8834 47.5269 37.2501C47.5027 37.2882 47.4716 37.2951 47.437 37.2674Z" fill="#45B15C"/>
<path d="M64.5404 70.6223C64.5958 70.6223 64.6511 70.6223 64.7065 70.6223C64.793 70.8921 64.5231 71.2346 64.8725 71.4526C64.8241 71.7535 64.7791 72.0545 64.5404 72.2794C64.4436 71.7259 64.5923 71.1758 64.5404 70.6223Z" fill="#1FA735"/>
<path d="M49.9314 41.072C49.8795 41.0132 49.8241 40.9544 49.7723 40.8956C49.755 40.7676 49.6927 40.6638 49.6097 40.5669C49.3502 40.138 49.1565 39.6675 48.8728 39.2489C48.8659 39.1832 48.8832 39.1244 48.9282 39.0759C49.4263 39.6606 49.7861 40.3144 49.9314 41.072Z" fill="#4BB060"/>
<path d="M50.257 55.1667C50.2605 55.229 50.2674 55.2947 50.2709 55.357C50.1878 55.831 50.0183 56.2703 49.7727 56.682C49.8384 56.1458 50.0425 55.6545 50.257 55.1667Z" fill="#D3F8DC"/>
<path d="M48.8557 58.3355C49.0702 57.8719 49.2985 57.4153 49.6202 57.0175C49.5061 57.5156 49.2224 57.9273 48.9457 58.3424C48.9145 58.3839 48.8834 58.3804 48.8557 58.3355Z" fill="#C8EDD2"/>
<path d="M43.6277 34.5939C43.4097 34.625 43.2575 34.4416 43.0569 34.4209C42.9185 34.3621 42.7698 34.3448 42.6314 34.286C42.5899 34.2133 42.4307 34.241 42.4653 34.0957C42.8943 34.158 43.3163 34.241 43.6277 34.5939Z" fill="#59B168"/>
<path d="M47.4365 37.267C47.4677 37.2635 47.4953 37.2566 47.5265 37.2532C47.7582 37.5991 48.1249 37.8413 48.2771 38.2426C47.8759 38.0212 47.6821 37.6199 47.4365 37.267Z" fill="#BCEAC4"/>
<path d="M44.6069 35.0986C44.2714 34.9498 43.9185 34.8287 43.6279 34.5935C44.0604 34.6004 44.3925 34.8391 44.7211 35.0778C44.6934 35.1297 44.6554 35.1366 44.6069 35.0986Z" fill="#4BAF61"/>
<path d="M48.9314 39.0798C48.9349 39.1352 48.9383 39.1905 48.9418 39.2424C48.8449 39.2943 48.8173 39.2113 48.7792 39.1559C48.7204 38.7927 48.2776 38.6405 48.2776 38.2461C48.5889 38.4502 48.6858 38.8238 48.9314 39.0798Z" fill="#BBF1BE"/>
<path d="M18.3129 33.5964C18.351 33.5999 18.3856 33.6034 18.4236 33.6103C18.3095 33.8836 18.1919 34.1569 18.0777 34.4301C18.0431 34.4267 18.0085 34.4232 17.9705 34.4198C18.0742 34.1396 18.05 33.8075 18.3129 33.5964Z" fill="#43AE62"/>
<path d="M42.4622 34.098C42.5245 34.1464 42.5902 34.1983 42.6525 34.2467C42.6248 34.2986 42.5833 34.3055 42.5384 34.2709C42.2651 34.1879 41.9918 34.1014 41.7185 34.0184C41.6977 33.9354 41.715 33.8904 41.8119 33.9215C42.0506 33.8973 42.2374 34.0668 42.4622 34.098Z" fill="#C1EDC7"/>
<path d="M47.1018 60.6528C47.3163 60.421 47.5135 60.1719 47.7764 59.9921C47.6484 60.3138 47.4408 60.549 47.1018 60.6528Z" fill="#46AA5C"/>
<path d="M50.263 41.9865C50.1108 41.6959 49.9932 41.395 49.9309 41.0732C50.1592 41.3327 50.2699 41.6371 50.263 41.9865Z" fill="#4BB060"/>
<path d="M41.8116 33.9217C41.7804 33.9528 41.7493 33.9874 41.7182 34.0185C41.5418 33.894 41.2823 33.9528 41.1335 33.766C41.22 33.7625 41.3065 33.7591 41.3895 33.7556C41.5418 33.7833 41.6905 33.8179 41.8116 33.9217Z" fill="#B3E7BE"/>
<path d="M50.7583 43.8164C50.6406 43.5777 50.5887 43.3286 50.5922 43.0623C50.8413 43.2733 50.7583 43.5535 50.7583 43.8164Z" fill="#4DAA5C"/>
<path d="M50.5921 43.0695C50.4537 42.8999 50.4261 42.6958 50.4226 42.4883C50.689 42.6197 50.5817 42.8619 50.5921 43.0695Z" fill="#4DAA5C"/>
<path d="M45.4514 35.5103C45.4514 35.5414 45.4479 35.5691 45.4479 35.6002C45.2438 35.5414 45.0674 35.448 44.9463 35.2682C45.1677 35.2405 45.2853 35.4273 45.4514 35.5103Z" fill="#5CB76E"/>
<path d="M50.4259 42.4877C50.329 42.3355 50.2391 42.1798 50.2633 41.9861C50.5608 42.0726 50.3947 42.3113 50.4259 42.4877Z" fill="#4DAA5C"/>
<path d="M48.8552 58.3348C48.8864 58.3383 48.9175 58.3383 48.9486 58.3418C48.8898 58.5424 48.8068 58.7292 48.6131 58.8399C48.5992 58.6254 48.7757 58.5043 48.8552 58.3348Z" fill="#A3DEAA"/>
<path d="M44.6064 35.0982C44.6445 35.0913 44.6826 35.0844 44.7206 35.074C44.8278 35.0982 44.9558 35.0982 44.9455 35.2642C44.8002 35.2781 44.6998 35.1985 44.6064 35.0982Z" fill="#5CB76E"/>
<path d="M42.2901 53.1842C42.0445 53.672 41.9857 54.2393 41.6467 54.689C41.4875 54.8966 41.3457 55.1111 41.2627 55.3636C41.2246 55.5608 41.0932 55.6992 40.9721 55.8479L40.9756 55.8548C40.7507 56.1074 40.5535 56.3911 40.2422 56.5502C39.3012 57.3078 38.1977 57.6849 37.0422 57.9789C36.1947 58.1934 35.3472 58.2937 34.4719 58.311C34.126 58.3179 33.7801 58.439 33.4168 58.4286C32.0296 58.3836 30.6493 58.2487 29.2587 58.3041C28.4872 58.3352 27.7158 58.273 26.9443 58.356C26.7091 58.3802 26.5949 58.3318 26.6192 58.0861C26.7679 57.8267 26.7887 57.5638 26.6365 57.2974C26.6295 57.2213 26.6434 57.1521 26.678 57.0864C26.7575 56.9169 26.7368 56.7335 26.7368 56.5536C26.7368 51.0429 26.7368 45.5286 26.7368 40.0178C26.7368 39.8276 26.7679 39.6269 26.6572 39.454C26.6365 39.1668 26.7956 39.1495 27.0135 39.2153C27.0793 39.2602 27.1138 39.326 27.1346 39.3986C27.2245 39.7065 27.4909 39.6096 27.6881 39.6131C28.9335 39.6235 30.1754 39.6304 31.4208 39.6131C31.9466 39.6062 32.4655 39.6961 32.9533 39.6684C32.7768 39.5543 32.3963 39.8968 32.3133 39.4194C32.4793 39.2533 32.6904 39.3156 32.8875 39.2983C33.1366 39.2775 33.403 39.3536 33.6313 39.1945C33.8562 39.1011 34.1052 39.0907 34.3266 39.1461C35.0877 39.3329 35.8868 39.2153 36.641 39.454C37.3052 39.665 38.0213 39.7099 38.6301 40.0939C38.7097 40.1458 38.8204 40.132 38.9103 40.1562C39.2528 40.1562 39.4742 40.4364 39.7717 40.5367C40.0761 40.7512 40.3667 40.983 40.6296 41.2494C41.0759 41.6887 41.4114 42.2042 41.6951 42.7577C42.3316 43.9892 42.5703 45.328 42.7087 46.6875C42.8609 48.1889 42.8194 49.6902 42.6949 51.1882C42.643 51.8558 42.5115 52.5338 42.2901 53.1842Z" fill="#1DA737"/>
<path d="M26.5168 58.5146C26.2678 58.4281 26.3646 58.2137 26.3612 58.0545C26.3542 56.3006 26.3577 54.5433 26.3577 52.7894C26.3577 48.3683 26.3577 43.9438 26.3577 39.5227C26.3577 38.9346 26.3854 38.9104 26.9596 38.9138C28.1739 38.9173 29.3916 38.9173 30.6058 38.9138C32.5638 38.9104 34.5184 38.9588 36.4591 39.2528C37.189 39.3635 37.9224 39.5123 38.5762 39.8928C38.5416 39.9343 38.4967 39.962 38.4448 39.9724C37.573 39.7372 36.7151 39.4224 35.8087 39.3428C34.8228 39.2528 33.8403 39.1594 32.844 39.1837C31.0486 39.2321 29.2497 39.201 27.4509 39.1975C26.5653 39.1975 26.5653 39.1906 26.5653 40.09C26.5653 45.8153 26.5653 51.5405 26.5653 57.2658C26.5653 57.6671 26.5964 58.0649 26.6345 58.4627C26.6172 58.5215 26.5791 58.5388 26.5168 58.5146Z" fill="#CCF4D5"/>
<path d="M42.2894 53.1849C42.3966 52.2958 42.6215 51.4275 42.6734 50.5316C42.8048 48.1619 42.7771 45.8164 41.978 43.5402C41.8742 43.2427 41.6701 42.9832 41.6321 42.6615C41.594 42.6165 41.6009 42.5819 41.6494 42.5508C42.0991 43.2496 42.3067 44.0279 42.4866 44.8305C42.829 46.3457 42.9086 47.8782 42.8775 49.4176C42.8532 50.6353 42.7287 51.8496 42.4623 53.0431C42.4381 53.1399 42.3828 53.1814 42.2894 53.1849Z" fill="#E0F4E0"/>
<path d="M26.5181 58.5144C26.5596 58.5041 26.5976 58.4971 26.6391 58.4868C26.909 58.3691 27.1996 58.3657 27.4867 58.3657C28.9465 58.3622 30.4099 58.3519 31.8697 58.3726C32.3644 58.3795 32.8626 58.4107 33.3503 58.3726C34.5473 58.2723 35.7546 58.2723 36.9308 57.954C37.4462 57.8122 37.9686 57.7119 38.4494 57.4697C38.5913 57.4005 38.7608 57.3659 38.9303 57.3902C38.9857 57.4178 38.9995 57.4593 38.9753 57.5147C38.2211 57.8537 37.4428 58.1097 36.6229 58.2273C35.9968 58.3207 35.3741 58.466 34.7479 58.4971C32.098 58.6286 29.4447 58.5905 26.7914 58.5871C26.698 58.5836 26.6011 58.5836 26.5181 58.5144Z" fill="#D7F5DD"/>
<path d="M48.7756 39.157C48.831 39.1847 48.8863 39.2158 48.9382 39.2435C49.1942 39.669 49.4917 40.0737 49.6059 40.5684C49.3914 40.4369 49.2496 40.2778 49.2184 40.0045C49.1838 39.6759 48.8033 39.5029 48.7756 39.157Z" fill="#E5FBE8"/>
<path d="M41.6462 42.5503C41.6393 42.5884 41.6358 42.623 41.6289 42.661C41.2968 42.1871 40.9647 41.7166 40.6326 41.2427C41.1688 41.5229 41.3763 42.0625 41.6462 42.5503Z" fill="#D9F3DE"/>
<path d="M38.47 39.9138C38.508 39.9069 38.5426 39.9 38.5807 39.8931C39.0131 40.0418 39.4213 40.2425 39.8087 40.4881C39.8468 40.5261 39.8433 40.5573 39.7984 40.5884C39.5009 40.54 39.3071 40.2563 38.9993 40.2286C38.8159 40.1352 38.5322 40.2113 38.47 39.9138Z" fill="#C0EBC9"/>
<path d="M40.3238 56.4355C40.5417 56.2417 40.7562 56.048 40.9741 55.8508C40.7873 56.3248 40.3895 56.5946 39.9882 56.8575C39.9778 56.8402 39.964 56.8229 39.9536 56.8091C40.0055 56.6119 40.1612 56.5219 40.3238 56.4355Z" fill="#B0E6B8"/>
<path d="M39.8027 40.5881C39.8062 40.5535 39.8097 40.5224 39.8131 40.4878C40.1072 40.7161 40.4877 40.851 40.6364 41.2419C40.3147 41.0759 40.0691 40.8164 39.8027 40.5881Z" fill="#D9F3DE"/>
<path d="M41.2241 55.3574C41.2449 55.0599 41.3694 54.8247 41.6462 54.6863C41.6531 54.9699 41.4178 55.1325 41.3175 55.3643C41.2864 55.3954 41.2553 55.3955 41.2241 55.3574Z" fill="#3BAA50"/>
<path d="M41.2233 55.356C41.2544 55.3594 41.2855 55.3594 41.3167 55.3629C41.2752 55.5774 41.1991 55.7676 40.9673 55.8437C40.9777 55.6396 41.1679 55.5358 41.2233 55.356Z" fill="#8CDA9D"/>
<path d="M38.9779 57.5082C38.9744 57.4736 38.9744 57.439 38.9709 57.4044C39.0298 57.19 39.2442 57.2107 39.393 57.1277C39.4345 57.1346 39.4656 57.1588 39.4864 57.1969C39.3722 57.3906 39.1681 57.4356 38.9779 57.5082Z" fill="#DBF8E5"/>
<path d="M39.4872 57.1966C39.456 57.1897 39.4284 57.1828 39.3972 57.1758C39.5045 56.9337 39.6982 56.8299 39.9507 56.8126C39.9646 56.8265 39.9784 56.8438 39.9888 56.8576C39.8469 57.0098 39.674 57.1136 39.4872 57.1966Z" fill="#B0E6B8"/>
<path d="M42.5383 34.2715C42.5764 34.2646 42.6144 34.2542 42.6525 34.2473C42.8047 34.2681 42.95 34.2957 43.0538 34.4203C42.8601 34.4514 42.6871 34.4064 42.5383 34.2715Z" fill="#CFF4D6"/>
<path d="M57.1513 26.7777C54.1935 26.7777 51.2358 26.7743 48.278 26.7743C48.1881 26.6255 48.1915 26.456 48.1915 26.2934C48.1915 23.8753 48.1915 21.4607 48.1915 19.0426C48.1915 18.9077 48.1673 18.7658 48.2503 18.6378C48.3749 18.5271 48.534 18.5375 48.6827 18.5375C51.3914 18.534 54.1001 18.534 56.8054 18.5375C56.9576 18.5375 57.1132 18.5271 57.2447 18.624C57.3762 18.7762 57.3519 18.9595 57.3519 19.136C57.3554 21.4849 57.3554 23.8338 57.3519 26.1793C57.3589 26.4007 57.3692 26.629 57.1513 26.7777Z" fill="#F7C201"/>
<path d="M48.2738 18.6562C48.2738 21.3614 48.2773 24.0701 48.2773 26.7753C48.2184 26.7235 48.1596 26.675 48.1008 26.6231C48.1008 23.6896 48.1043 20.756 48.1043 17.8225C48.2392 17.7568 48.1389 17.5665 48.2738 17.4973C48.4848 17.7498 48.7823 17.6772 49.0452 17.6772C51.3596 17.6841 53.6704 17.6772 55.9847 17.6841C56.3826 17.6841 56.7839 17.6219 57.1748 17.7533C57.2578 17.7983 57.2855 17.8675 57.2682 17.9574C57.244 18.0058 57.2059 18.0439 57.1575 18.0681C56.9326 18.1581 56.6939 18.1338 56.4621 18.1338C54.0302 18.1373 51.5948 18.1338 49.1629 18.1338C49.0141 18.1338 48.8688 18.1269 48.7235 18.1615C51.2246 18.1823 53.7223 18.1788 56.2234 18.1788C56.4033 18.1788 56.5832 18.165 56.7597 18.2065C56.9084 18.2411 57.0745 18.2757 57.0018 18.5005C56.8392 18.6112 56.6559 18.5663 56.4794 18.5663C53.9195 18.5697 51.3561 18.5663 48.7962 18.5697C48.6163 18.5732 48.4329 18.5317 48.2738 18.6562Z" fill="#F0C603"/>
<path d="M57.2372 17.8256C54.3867 17.8256 51.5362 17.8256 48.6856 17.8256C48.4504 17.8256 48.2255 17.8394 48.274 17.4969C51.2213 17.4969 54.1722 17.4969 57.1196 17.49C57.3721 17.49 57.5312 17.5246 57.4032 17.8256C57.3514 17.8705 57.296 17.874 57.2372 17.8256Z" fill="#F3C106"/>
<path d="M57.1506 26.778C57.2164 26.5808 57.2371 26.3802 57.2371 26.1692C57.2337 23.6646 57.2337 21.16 57.2337 18.6519C57.3132 18.607 57.3859 18.5966 57.4343 18.6969C57.4481 21.1911 57.4343 23.6819 57.4412 26.1761C57.4412 26.3248 57.4032 26.4805 57.4793 26.6223C57.4551 26.8472 57.2856 26.778 57.1506 26.778Z" fill="#F0C603"/>
<path d="M57.4862 26.6229C57.3479 26.4845 57.4067 26.3081 57.4067 26.1489C57.4032 23.6513 57.4032 21.1536 57.4032 18.6525C57.3582 18.604 57.3306 18.5452 57.3306 18.4795C57.3479 18.393 57.3617 18.3031 57.4862 18.3238C57.4862 21.0913 57.4862 23.8554 57.4862 26.6229Z" fill="#E8C910"/>
<path d="M57.4864 18.3246C57.4241 18.3627 57.4069 18.4249 57.4034 18.4906C57.3031 18.5702 57.1993 18.5875 57.0851 18.5252C56.9571 18.2969 57.1197 18.1516 57.2373 17.9925C57.438 17.8714 57.4172 18.0824 57.483 18.1585C57.4864 18.2139 57.4864 18.2692 57.4864 18.3246Z" fill="#F0C603"/>
<path d="M57.4868 18.158C57.4038 18.1061 57.3658 17.9816 57.2412 17.992C57.2412 17.9366 57.2412 17.8813 57.2412 17.8259C57.2966 17.8259 57.3519 17.8259 57.4073 17.8259C57.5214 17.9124 57.4765 18.0404 57.4868 18.158Z" fill="#E8C910"/>
<path d="M39.9511 56.8129C39.747 56.9028 39.5567 57.017 39.3976 57.1761C39.2454 57.2315 39.0932 57.2868 38.9756 57.4079C37.8859 57.8092 36.7754 58.1275 35.62 58.2658C34.3988 58.4111 33.1707 58.4596 31.9427 58.4734C30.1749 58.4907 28.4072 58.4872 26.6394 58.4907C26.463 58.3835 26.4941 58.207 26.4907 58.0444C26.4838 56.9651 26.4768 55.8858 26.4768 54.8065C26.4734 49.7558 26.4768 44.7086 26.4734 39.6579C26.4734 39.0732 26.4734 39.0732 27.0684 39.0732C29.0887 39.0767 31.109 39.0629 33.1258 39.0905C34.8866 39.1147 36.6301 39.2739 38.3044 39.8862C38.3563 39.9035 38.4117 39.9035 38.467 39.9104C38.6435 40.0142 38.8199 40.1214 38.9998 40.2252C38.7611 40.2529 38.5501 40.2321 38.3494 40.0592C38.1073 39.8481 37.7613 39.8378 37.4707 39.7617C36.7512 39.5783 36.0247 39.3361 35.2706 39.3534C34.7275 39.3673 34.2085 39.1493 33.6654 39.2427C33.5616 39.3292 33.4337 39.3189 33.3126 39.3223C31.3753 39.3777 29.4346 39.3604 27.4974 39.3604C27.3313 39.3604 27.1653 39.3707 27.0303 39.2462C26.8989 39.2566 26.7259 39.1909 26.6948 39.4088C26.764 39.651 26.7813 39.8966 26.7813 40.1456C26.7813 45.646 26.7813 51.1499 26.7778 56.6503C26.7778 56.8267 26.8193 57.0135 26.6982 57.1727C26.6982 57.228 26.6982 57.2834 26.6982 57.3387C26.8332 57.5601 26.8089 57.7815 26.6982 58.0029C26.6325 58.2866 26.8297 58.3316 26.9992 58.2485C27.1895 58.1551 27.3694 58.1724 27.5562 58.169C28.9641 58.1655 30.3721 58.1863 31.7801 58.1551C32.1502 58.1482 32.4477 58.3662 32.8144 58.335C34.1982 58.2139 35.5819 58.1863 36.9518 57.8784C37.6126 57.7296 38.1903 57.401 38.8441 57.2661C39.2731 57.1761 39.6156 56.8613 39.9649 56.5984C40.0791 56.5119 40.1794 56.4289 40.3282 56.4324C40.2002 56.5604 40.0756 56.6884 39.9511 56.8129Z" fill="#30A649"/>
<path d="M26.698 57.1729C26.698 51.5306 26.6946 45.8849 26.7084 40.2427C26.7084 39.9625 26.5078 39.6857 26.6946 39.4055C26.9644 39.4747 26.8572 39.6961 26.8572 39.8518C26.8641 42.768 26.8606 45.6808 26.8606 48.5971C26.8606 51.3058 26.8641 54.0145 26.8572 56.7231C26.8572 56.8823 26.9644 57.1037 26.698 57.1729Z" fill="#16AB37"/>
<path d="M32.34 39.409C32.3746 39.6097 32.5303 39.5716 32.6618 39.5751C32.9766 39.5785 33.2879 39.5751 33.6062 39.5751C33.6027 39.7861 33.4747 39.7377 33.3951 39.7377C31.3818 39.7411 29.3684 39.7377 27.3551 39.7446C27.0991 39.7446 26.9988 39.6546 27.0299 39.409C27.1475 39.3122 27.2894 39.326 27.4277 39.326C28.936 39.326 30.4408 39.3225 31.9491 39.326C32.0806 39.3295 32.2259 39.2983 32.34 39.409Z" fill="#20A53E"/>
<path d="M32.3409 39.4089C30.5697 39.4089 28.7985 39.4089 27.0308 39.4089C27.0308 39.3536 27.0308 39.3017 27.0308 39.2463C29.2448 39.2463 31.4553 39.2463 33.6693 39.2463C33.6382 39.4435 33.4825 39.4089 33.3545 39.4089C33.0155 39.4124 32.6765 39.4089 32.3409 39.4089Z" fill="#17AC31"/>
<path d="M26.6948 58.0039C26.6948 57.7825 26.6948 57.5611 26.6948 57.3397C26.9612 57.5646 26.9646 57.786 26.6948 58.0039Z" fill="#16AB37"/>
<path d="M57.0706 18.4908C57.1813 18.4908 57.292 18.4908 57.4027 18.4908C57.4027 18.5462 57.4027 18.6015 57.4027 18.6569C57.3474 18.6569 57.292 18.6569 57.2367 18.6569C54.2478 18.6569 51.2623 18.6569 48.2734 18.6569C48.3426 18.387 48.564 18.4943 48.7197 18.4943C51.4768 18.4874 54.2305 18.4908 56.9876 18.4908C57.0153 18.4389 57.0429 18.4389 57.0706 18.4908Z" fill="#F9BF0A"/>
<path d="M57.0717 18.49C57.044 18.49 57.0163 18.49 56.9887 18.49C56.9195 18.2202 56.6981 18.3309 56.5424 18.3274C53.9617 18.3205 51.3775 18.3274 48.7969 18.3136C48.6273 18.3136 48.2987 18.4658 48.3091 18.1406C48.316 17.8777 48.6204 17.9988 48.7899 17.9953C51.6059 17.9884 54.4218 17.9884 57.2377 17.9884C57.3 18.196 57.1166 18.3205 57.0717 18.49Z" fill="#FAC103"/>
</svg>
