<svg width="15" height="14" viewBox="0 0 15 14" fill="none" xmlns="http://www.w3.org/2000/svg">
<path d="M3.405 1.75C3.45 2.4175 3.5625 3.07 3.7425 3.6925L2.8425 4.5925C2.535 3.6925 2.34 2.74 2.2725 1.75H3.405ZM10.8 10.765C11.4375 10.945 12.09 11.0575 12.75 11.1025V12.22C11.76 12.1525 10.8075 11.9575 9.9 11.6575L10.8 10.765ZM4.125 0.25H1.5C1.0875 0.25 0.75 0.5875 0.75 1C0.75 8.0425 6.4575 13.75 13.5 13.75C13.9125 13.75 14.25 13.4125 14.25 13V10.3825C14.25 9.97 13.9125 9.6325 13.5 9.6325C12.57 9.6325 11.6625 9.4825 10.8225 9.205C10.7475 9.175 10.665 9.1675 10.59 9.1675C10.395 9.1675 10.2075 9.2425 10.0575 9.385L8.4075 11.035C6.285 9.9475 4.545 8.215 3.465 6.0925L5.115 4.4425C5.325 4.2325 5.385 3.94 5.3025 3.6775C5.025 2.8375 4.875 1.9375 4.875 1C4.875 0.5875 4.5375 0.25 4.125 0.25Z" fill="#1DA737"/>
</svg>
